# This file uses centimeters as units for non-parametric coordinates.

mtllib disco.mtl
g default
v -0.096521 -0.000359 0.000000
v -0.096521 0.000359 0.000000
v -0.094666 -0.000359 0.018830
v -0.094666 -0.000359 -0.018830
v -0.094666 0.000359 0.018830
v -0.094666 0.000359 -0.018830
v -0.089174 -0.000359 0.036937
v -0.089174 -0.000359 -0.036937
v -0.089173 0.000359 0.036937
v -0.089173 0.000359 -0.036937
v -0.080254 -0.000359 0.053624
v -0.080254 -0.000359 -0.053624
v -0.080254 0.000359 0.053624
v -0.080254 0.000359 -0.053624
v -0.068251 -0.000359 0.068251
v -0.068251 -0.000359 -0.068251
v -0.068250 0.000359 0.068251
v -0.068250 0.000359 -0.068251
v -0.053624 -0.000359 0.080254
v -0.053624 -0.000359 -0.080254
v -0.053624 0.000359 0.080254
v -0.053624 0.000359 -0.080254
v -0.036937 -0.000359 0.089174
v -0.036937 -0.000359 -0.089174
v -0.036937 0.000359 0.089174
v -0.036937 0.000359 -0.089174
v -0.018830 -0.000359 0.094666
v -0.018830 -0.000359 -0.094666
v -0.018830 0.000359 0.094666
v -0.018830 0.000359 -0.094666
v 0.000000 -0.000359 0.096521
v 0.000000 -0.000359 -0.096521
v 0.000000 0.000359 0.096521
v 0.000000 0.000359 -0.096521
v 0.018830 -0.000359 0.094666
v 0.018830 -0.000359 -0.094666
v 0.018830 0.000359 0.094666
v 0.018830 0.000359 -0.094666
v 0.036937 -0.000359 0.089174
v 0.036937 -0.000359 -0.089174
v 0.036937 0.000359 0.089174
v 0.036937 0.000359 -0.089174
v 0.053624 -0.000359 0.080254
v 0.053624 -0.000359 -0.080254
v 0.053624 0.000359 0.080254
v 0.053624 0.000359 -0.080254
v 0.068251 -0.000359 0.068251
v 0.068251 -0.000359 -0.068251
v 0.068251 0.000359 0.068251
v 0.068251 0.000359 -0.068251
v 0.080254 -0.000359 0.053624
v 0.080254 -0.000359 -0.053624
v 0.080254 0.000359 0.053624
v 0.080254 0.000359 -0.053624
v 0.089174 -0.000359 0.036937
v 0.089174 -0.000359 -0.036937
v 0.089174 0.000359 0.036937
v 0.089174 0.000359 -0.036937
v 0.094666 -0.000359 0.018830
v 0.094666 -0.000359 -0.018830
v 0.094666 0.000359 0.018830
v 0.094666 0.000359 -0.018830
v 0.096521 -0.000359 0.000000
v 0.096521 0.000359 0.000000
vt 0.985489 0.403430
vt 0.957320 0.310572
vt 0.911577 0.224993
vt 0.850018 0.149982
vt 0.775007 0.088422
vt 0.689428 0.042680
vt 0.596570 0.014511
vt 0.500000 0.005000
vt 0.403430 0.014511
vt 0.310572 0.042680
vt 0.224993 0.088422
vt 0.149982 0.149982
vt 0.088422 0.224993
vt 0.042680 0.310572
vt 0.014511 0.403430
vt 0.005000 0.500000
vt 0.014511 0.596570
vt 0.042680 0.689428
vt 0.088422 0.775007
vt 0.149982 0.850018
vt 0.224993 0.911577
vt 0.310572 0.957320
vt 0.403430 0.985489
vt 0.500000 0.995000
vt 0.596570 0.985489
vt 0.689428 0.957320
vt 0.775007 0.911577
vt 0.850018 0.850018
vt 0.911577 0.775007
vt 0.957320 0.689428
vt 0.985489 0.596570
vt 0.995000 0.500000
vt 0.980438 0.595565
vt 0.989850 0.500000
vt 0.952562 0.687458
vt 0.907295 0.772146
vt 0.846376 0.846376
vt 0.772146 0.907295
vt 0.687458 0.952562
vt 0.595565 0.980438
vt 0.500000 0.989850
vt 0.404435 0.980438
vt 0.312542 0.952562
vt 0.227854 0.907295
vt 0.153624 0.846376
vt 0.092705 0.772146
vt 0.047438 0.687458
vt 0.019562 0.595565
vt 0.010150 0.500000
vt 0.019562 0.404435
vt 0.047438 0.312542
vt 0.092705 0.227854
vt 0.153624 0.153624
vt 0.227854 0.092705
vt 0.312542 0.047438
vt 0.404435 0.019562
vt 0.500000 0.010150
vt 0.595565 0.019562
vt 0.687458 0.047438
vt 0.772146 0.092705
vt 0.846376 0.153624
vt 0.907295 0.227854
vt 0.952562 0.312542
vt 0.980438 0.404435
vt 0.980438 0.595565
vt 0.989850 0.500000
vt 0.952562 0.687458
vt 0.980438 0.595565
vt 0.907295 0.772146
vt 0.952562 0.687458
vt 0.846376 0.846376
vt 0.907295 0.772146
vt 0.772146 0.907295
vt 0.846376 0.846376
vt 0.687458 0.952562
vt 0.772146 0.907295
vt 0.595565 0.980438
vt 0.687458 0.952562
vt 0.500000 0.989850
vt 0.595565 0.980438
vt 0.500000 0.989850
vt 0.404435 0.980438
vt 0.404435 0.980438
vt 0.312542 0.952562
vt 0.312542 0.952562
vt 0.227854 0.907295
vt 0.227854 0.907295
vt 0.153624 0.846376
vt 0.153624 0.846376
vt 0.092705 0.772146
vt 0.092705 0.772146
vt 0.047438 0.687458
vt 0.047438 0.687458
vt 0.019562 0.595565
vt 0.019562 0.595565
vt 0.010150 0.500000
vt 0.010150 0.500000
vt 0.019562 0.404435
vt 0.019562 0.404435
vt 0.047438 0.312542
vt 0.047438 0.312542
vt 0.092705 0.227854
vt 0.092705 0.227854
vt 0.153624 0.153624
vt 0.153624 0.153624
vt 0.227854 0.092705
vt 0.227854 0.092705
vt 0.312542 0.047438
vt 0.312542 0.047438
vt 0.404435 0.019562
vt 0.404435 0.019562
vt 0.500000 0.010150
vt 0.595565 0.019562
vt 0.500000 0.010150
vt 0.687458 0.047438
vt 0.595565 0.019562
vt 0.772146 0.092705
vt 0.687458 0.047438
vt 0.846376 0.153624
vt 0.772146 0.092705
vt 0.907295 0.227854
vt 0.846376 0.153624
vt 0.952562 0.312542
vt 0.907295 0.227854
vt 0.980438 0.404435
vt 0.952562 0.312542
vt 0.989850 0.500000
vt 0.980438 0.404435
vt 0.980438 0.595565
vt 0.952562 0.687458
vt 0.907295 0.772146
vt 0.846376 0.846376
vt 0.772146 0.907295
vt 0.687458 0.952562
vt 0.595565 0.980438
vt 0.500000 0.989850
vt 0.595565 0.019562
vt 0.687458 0.047438
vt 0.772146 0.092705
vt 0.846376 0.153624
vt 0.907295 0.227854
vt 0.952562 0.312542
vt 0.980438 0.404435
vn 0.876391 -0.448942 0.174325
vn 0.825543 -0.448942 0.341951
vn 0.893561 -0.448942 0.000000
vn 0.742969 -0.448942 0.496436
vn 0.631843 -0.448942 0.631843
vn 0.496436 -0.448942 0.742969
vn 0.341951 -0.448942 0.825543
vn 0.174325 -0.448942 0.876391
vn 0.000000 -0.448942 0.893561
vn -0.174325 -0.448942 0.876391
vn -0.341951 -0.448942 0.825543
vn -0.496436 -0.448942 0.742969
vn -0.631843 -0.448942 0.631843
vn -0.742969 -0.448942 0.496436
vn -0.825543 -0.448942 0.341951
vn -0.876391 -0.448942 0.174325
vn -0.893561 -0.448942 0.000000
vn -0.876391 -0.448942 -0.174325
vn -0.825543 -0.448942 -0.341951
vn -0.742969 -0.448942 -0.496436
vn -0.631843 -0.448942 -0.631843
vn -0.496436 -0.448942 -0.742969
vn -0.341951 -0.448942 -0.825543
vn -0.174325 -0.448942 -0.876391
vn 0.000000 -0.448942 -0.893561
vn 0.174325 -0.448942 -0.876391
vn 0.341951 -0.448942 -0.825543
vn 0.496436 -0.448942 -0.742969
vn 0.631843 -0.448942 -0.631843
vn 0.742969 -0.448942 -0.496436
vn 0.825543 -0.448942 -0.341951
vn 0.876391 -0.448942 -0.174325
vn 0.876391 -0.448942 -0.174325
vn 0.876391 0.448942 -0.174325
vn 0.893561 -0.448942 0.000000
vn 0.893561 0.448942 0.000000
vn 0.825543 -0.448942 -0.341951
vn 0.825543 0.448942 -0.341951
vn 0.876391 -0.448942 -0.174325
vn 0.876391 0.448942 -0.174325
vn 0.742969 -0.448942 -0.496436
vn 0.742969 0.448942 -0.496436
vn 0.825543 -0.448942 -0.341951
vn 0.825543 0.448942 -0.341951
vn 0.631843 -0.448942 -0.631843
vn 0.631843 0.448942 -0.631843
vn 0.742969 -0.448942 -0.496436
vn 0.742969 0.448942 -0.496436
vn 0.496436 -0.448942 -0.742969
vn 0.496436 0.448942 -0.742969
vn 0.631843 -0.448942 -0.631843
vn 0.631843 0.448942 -0.631843
vn 0.341951 -0.448942 -0.825543
vn 0.341951 0.448942 -0.825543
vn 0.496436 -0.448942 -0.742969
vn 0.496436 0.448942 -0.742969
vn 0.174325 -0.448942 -0.876391
vn 0.174325 0.448942 -0.876391
vn 0.341951 -0.448942 -0.825543
vn 0.341951 0.448942 -0.825543
vn 0.000000 -0.448942 -0.893561
vn 0.000000 0.448942 -0.893561
vn 0.174325 -0.448942 -0.876391
vn 0.174325 0.448942 -0.876391
vn -0.174325 0.448942 -0.876391
vn 0.000000 0.448942 -0.893561
vn -0.174325 -0.448942 -0.876391
vn 0.000000 -0.448942 -0.893561
vn -0.341951 0.448942 -0.825543
vn -0.174325 0.448942 -0.876391
vn -0.341951 -0.448942 -0.825543
vn -0.174325 -0.448942 -0.876391
vn -0.496436 0.448942 -0.742969
vn -0.341951 0.448942 -0.825543
vn -0.496436 -0.448942 -0.742969
vn -0.341951 -0.448942 -0.825543
vn -0.631843 0.448942 -0.631843
vn -0.496436 0.448942 -0.742969
vn -0.631843 -0.448942 -0.631843
vn -0.496436 -0.448942 -0.742969
vn -0.742969 0.448942 -0.496436
vn -0.631843 0.448942 -0.631843
vn -0.742969 -0.448942 -0.496436
vn -0.631843 -0.448942 -0.631843
vn -0.825543 0.448942 -0.341951
vn -0.742969 0.448942 -0.496436
vn -0.825543 -0.448942 -0.341951
vn -0.742969 -0.448942 -0.496436
vn -0.876391 0.448942 -0.174325
vn -0.825543 0.448942 -0.341951
vn -0.876391 -0.448942 -0.174325
vn -0.825543 -0.448942 -0.341951
vn -0.893561 0.448942 0.000000
vn -0.876391 0.448942 -0.174325
vn -0.893561 -0.448942 0.000000
vn -0.876391 -0.448942 -0.174325
vn -0.876391 0.448942 0.174325
vn -0.893561 0.448942 0.000000
vn -0.876391 -0.448942 0.174325
vn -0.893561 -0.448942 0.000000
vn -0.825543 0.448942 0.341951
vn -0.876391 0.448942 0.174325
vn -0.825543 -0.448942 0.341951
vn -0.876391 -0.448942 0.174325
vn -0.742969 0.448942 0.496436
vn -0.825543 0.448942 0.341951
vn -0.742969 -0.448942 0.496436
vn -0.825543 -0.448942 0.341951
vn -0.631843 0.448942 0.631843
vn -0.742969 0.448942 0.496436
vn -0.631843 -0.448942 0.631843
vn -0.742969 -0.448942 0.496436
vn -0.496436 0.448942 0.742969
vn -0.631843 0.448942 0.631843
vn -0.496436 -0.448942 0.742969
vn -0.631843 -0.448942 0.631843
vn -0.341951 0.448942 0.825543
vn -0.496436 0.448942 0.742969
vn -0.341951 -0.448942 0.825543
vn -0.496436 -0.448942 0.742969
vn -0.174325 0.448942 0.876391
vn -0.341951 0.448942 0.825543
vn -0.174325 -0.448942 0.876391
vn -0.341951 -0.448942 0.825543
vn 0.000000 0.448942 0.893561
vn -0.174325 0.448942 0.876391
vn 0.000000 -0.448942 0.893561
vn -0.174325 -0.448942 0.876391
vn 0.174325 -0.448942 0.876391
vn 0.174325 0.448942 0.876391
vn 0.000000 -0.448942 0.893561
vn 0.000000 0.448942 0.893561
vn 0.341951 -0.448942 0.825543
vn 0.341951 0.448942 0.825543
vn 0.174325 -0.448942 0.876391
vn 0.174325 0.448942 0.876391
vn 0.496436 -0.448942 0.742969
vn 0.496436 0.448942 0.742969
vn 0.341951 -0.448942 0.825543
vn 0.341951 0.448942 0.825543
vn 0.631843 -0.448942 0.631843
vn 0.631843 0.448942 0.631843
vn 0.496436 -0.448942 0.742969
vn 0.496436 0.448942 0.742969
vn 0.742969 -0.448942 0.496436
vn 0.742969 0.448942 0.496436
vn 0.631843 -0.448942 0.631843
vn 0.631843 0.448942 0.631843
vn 0.825543 -0.448942 0.341951
vn 0.825543 0.448942 0.341951
vn 0.742969 -0.448942 0.496436
vn 0.742969 0.448942 0.496436
vn 0.876391 -0.448942 0.174325
vn 0.876391 0.448942 0.174325
vn 0.825543 -0.448942 0.341951
vn 0.825543 0.448942 0.341951
vn 0.893561 -0.448942 0.000000
vn 0.893561 0.448942 0.000000
vn 0.876391 -0.448942 0.174325
vn 0.876391 0.448942 0.174325
vn 0.876391 0.448942 -0.174325
vn 0.825543 0.448942 -0.341951
vn 0.893561 0.448942 0.000000
vn 0.742969 0.448942 -0.496436
vn 0.631843 0.448942 -0.631843
vn 0.496436 0.448942 -0.742969
vn 0.341951 0.448942 -0.825543
vn 0.174325 0.448942 -0.876391
vn 0.000000 0.448942 -0.893561
vn -0.174325 0.448942 -0.876391
vn -0.341951 0.448942 -0.825543
vn -0.496436 0.448942 -0.742969
vn -0.631843 0.448942 -0.631843
vn -0.742969 0.448942 -0.496436
vn -0.825543 0.448942 -0.341951
vn -0.876391 0.448942 -0.174325
vn -0.893561 0.448942 0.000000
vn -0.876391 0.448942 0.174325
vn -0.825543 0.448942 0.341951
vn -0.742969 0.448942 0.496436
vn -0.631843 0.448942 0.631843
vn -0.496436 0.448942 0.742969
vn -0.341951 0.448942 0.825543
vn -0.174325 0.448942 0.876391
vn 0.000000 0.448942 0.893561
vn 0.174325 0.448942 0.876391
vn 0.341951 0.448942 0.825543
vn 0.496436 0.448942 0.742969
vn 0.631843 0.448942 0.631843
vn 0.742969 0.448942 0.496436
vn 0.825543 0.448942 0.341951
vn 0.876391 0.448942 0.174325
s 1
g Small_Disc1:default1
usemtl lambert3SG
f 59/1/1 55/2/2 63/32/3
f 51/3/4 47/4/5 55/2/2
f 43/5/6 39/6/7 47/4/5
f 35/7/8 31/8/9 39/6/7
f 27/9/10 23/10/11 31/8/9
f 19/11/12 15/12/13 23/10/11
f 11/13/14 7/14/15 15/12/13
f 3/15/16 1/16/17 7/14/15
f 4/17/18 8/18/19 1/16/17
f 12/19/20 16/20/21 8/18/19
f 20/21/22 24/22/23 16/20/21
f 28/23/24 32/24/25 24/22/23
f 36/25/26 40/26/27 32/24/25
f 44/27/28 48/28/29 40/26/27
f 52/29/30 56/30/31 48/28/29
f 60/31/32 63/32/3 56/30/31
f 55/2/2 47/4/5 63/32/3
f 39/6/7 31/8/9 47/4/5
f 23/10/11 15/12/13 31/8/9
f 7/14/15 1/16/17 15/12/13
f 8/18/19 16/20/21 1/16/17
f 24/22/23 32/24/25 16/20/21
f 40/26/27 48/28/29 32/24/25
f 56/30/31 63/32/3 48/28/29
f 47/4/5 31/8/9 63/32/3
f 15/12/13 1/16/17 31/8/9
f 16/20/21 32/24/25 1/16/17
f 48/28/29 63/32/3 32/24/25
f 31/8/9 1/16/17 63/32/3
f 1/16/17 32/24/25 63/32/3
s 9
usemtl lambert2SG
f 60/33/33 62/65/34 63/66/35
f 63/66/35 62/65/34 64/34/36
s 10
f 56/35/37 58/67/38 60/33/39
f 60/33/39 58/67/38 62/68/40
s 11
f 52/36/41 54/69/42 56/35/43
f 56/35/43 54/69/42 58/70/44
s 12
f 48/37/45 50/71/46 52/36/47
f 52/36/47 50/71/46 54/72/48
s 13
f 44/38/49 46/73/50 48/37/51
f 48/37/51 46/73/50 50/74/52
s 14
f 40/39/53 42/75/54 44/38/55
f 44/38/55 42/75/54 46/76/56
s 15
f 36/40/57 38/77/58 40/39/59
f 40/39/59 38/77/58 42/78/60
s 16
f 32/41/61 34/79/62 36/40/63
f 36/40/63 34/79/62 38/80/64
s 17
f 30/42/65 34/81/66 28/82/67
f 28/82/67 34/81/66 32/41/68
s 18
f 26/43/69 30/42/70 24/84/71
f 24/84/71 30/42/70 28/83/72
s 19
f 22/44/73 26/43/74 20/86/75
f 20/86/75 26/43/74 24/85/76
s 20
f 18/45/77 22/44/78 16/88/79
f 16/88/79 22/44/78 20/87/80
s 21
f 14/46/81 18/45/82 12/90/83
f 12/90/83 18/45/82 16/89/84
s 22
f 10/47/85 14/46/86 8/92/87
f 8/92/87 14/46/86 12/91/88
s 23
f 6/48/89 10/47/90 4/94/91
f 4/94/91 10/47/90 8/93/92
s 24
f 2/49/93 6/48/94 1/96/95
f 1/96/95 6/48/94 4/95/96
s 25
f 5/50/97 2/49/98 3/98/99
f 3/98/99 2/49/98 1/97/100
s 26
f 9/51/101 5/50/102 7/100/103
f 7/100/103 5/50/102 3/99/104
s 27
f 13/52/105 9/51/106 11/102/107
f 11/102/107 9/51/106 7/101/108
s 28
f 17/53/109 13/52/110 15/104/111
f 15/104/111 13/52/110 11/103/112
s 29
f 21/54/113 17/53/114 19/106/115
f 19/106/115 17/53/114 15/105/116
s 30
f 25/55/117 21/54/118 23/108/119
f 23/108/119 21/54/118 19/107/120
s 31
f 29/56/121 25/55/122 27/110/123
f 27/110/123 25/55/122 23/109/124
s 32
f 33/57/125 29/56/126 31/112/127
f 31/112/127 29/56/126 27/111/128
s 33
f 35/58/129 37/113/130 31/114/131
f 31/114/131 37/113/130 33/57/132
s 34
f 39/59/133 41/115/134 35/58/135
f 35/58/135 41/115/134 37/116/136
s 35
f 43/60/137 45/117/138 39/59/139
f 39/59/139 45/117/138 41/118/140
s 36
f 47/61/141 49/119/142 43/60/143
f 43/60/143 49/119/142 45/120/144
s 37
f 51/62/145 53/121/146 47/61/147
f 47/61/147 53/121/146 49/122/148
s 38
f 55/63/149 57/123/150 51/62/151
f 51/62/151 57/123/150 53/124/152
s 39
f 59/64/153 61/125/154 55/63/155
f 55/63/155 61/125/154 57/126/156
s 40
f 63/127/157 64/34/158 59/64/159
f 59/64/159 64/34/158 61/128/160
s 41
f 62/129/161 58/130/162 64/34/163
f 54/131/164 50/132/165 58/130/162
f 46/133/166 42/134/167 50/132/165
f 38/135/168 34/136/169 42/134/167
f 30/42/170 26/43/171 34/136/169
f 22/44/172 18/45/173 26/43/171
f 14/46/174 10/47/175 18/45/173
f 6/48/176 2/49/177 10/47/175
f 5/50/178 9/51/179 2/49/177
f 13/52/180 17/53/181 9/51/179
f 21/54/182 25/55/183 17/53/181
f 29/56/184 33/57/185 25/55/183
f 37/137/186 41/138/187 33/57/185
f 45/139/188 49/140/189 41/138/187
f 53/141/190 57/142/191 49/140/189
f 61/143/192 64/34/163 57/142/191
f 58/130/162 50/132/165 64/34/163
f 42/134/167 34/136/169 50/132/165
f 26/43/171 18/45/173 34/136/169
f 10/47/175 2/49/177 18/45/173
f 9/51/179 17/53/181 2/49/177
f 25/55/183 33/57/185 17/53/181
f 41/138/187 49/140/189 33/57/185
f 57/142/191 64/34/163 49/140/189
f 50/132/165 34/136/169 64/34/163
f 18/45/173 2/49/177 34/136/169
f 17/53/181 33/57/185 2/49/177
f 49/140/189 64/34/163 33/57/185
f 34/136/169 2/49/177 64/34/163
f 2/49/177 33/57/185 64/34/163
