# This file uses centimeters as units for non-parametric coordinates.

mtllib libro1.mtl
g default
v -0.163620 0.028613 0.139585
v -0.163620 0.028613 -0.118746
v -0.163620 -0.016288 0.139585
v -0.163620 -0.016288 -0.118746
v 0.147035 -0.016288 0.139585
v 0.147035 -0.016288 -0.118746
v 0.147035 0.028613 0.139585
v 0.147035 0.028613 -0.118746
v -0.163620 -0.013687 -0.130769
v 0.147035 -0.013687 -0.130769
v -0.163620 -0.002035 -0.138025
v 0.147035 -0.002035 -0.138025
v -0.163620 0.014360 -0.138025
v 0.147035 0.014360 -0.138025
v -0.163620 0.026012 -0.130769
v 0.147035 0.026012 -0.130769
v -0.163620 -0.013723 -0.118746
v -0.163620 -0.013215 0.139585
v 0.147035 -0.013215 0.139585
v 0.147035 -0.013723 -0.118746
v 0.147035 0.025929 -0.118746
v 0.147035 0.025701 0.139585
v -0.163620 0.025701 0.139585
v -0.163620 0.025929 -0.118746
v -0.163620 -0.010722 -0.129049
v -0.163620 -0.000559 -0.134890
v -0.163620 0.013160 -0.134864
v -0.163620 0.022869 -0.128796
v 0.147035 -0.010714 -0.129046
v 0.147035 -0.000572 -0.134918
v 0.147035 0.013156 -0.134854
v 0.147035 0.022891 -0.128791
v -0.160800 0.007051 0.131435
v -0.159802 0.007043 -0.118746
v -0.160817 -0.005661 0.133325
v 0.144233 -0.005661 0.133325
v 0.143217 0.007043 -0.118746
v 0.144216 0.007051 0.131435
v 0.143217 -0.010714 -0.129046
v 0.143217 -0.000572 -0.134918
v 0.144217 0.019151 0.133361
v -0.160801 0.019151 0.133361
v 0.143217 -0.013723 -0.118746
v 0.143217 0.013156 -0.134854
v 0.143217 0.022891 -0.128791
v 0.143217 0.025929 -0.118746
v -0.159802 -0.013723 -0.118746
v -0.161711 -0.013845 0.137656
v 0.145126 -0.013845 0.137656
v 0.145126 0.026402 0.137689
v -0.161711 0.026402 0.137689
v -0.159802 0.025929 -0.118746
v -0.159802 -0.010722 -0.129049
v -0.159802 -0.000559 -0.134890
v -0.159802 0.013160 -0.134864
v -0.159802 0.022869 -0.128796
vt 0.402079 0.633777
vt 0.401823 0.505705
vt 0.409601 0.634729
vt 0.417145 0.637927
vt 0.417148 0.505582
vt 0.549897 0.637927
vt 0.549880 0.505573
vt 0.557441 0.634727
vt 0.565200 0.505692
vt 0.564963 0.633773
vt 0.549874 0.335195
vt 0.549880 0.467527
vt 0.417133 0.335202
vt 0.417142 0.467535
vt 0.548733 0.653702
vt 0.418309 0.653702
vt 0.548740 0.646123
vt 0.418301 0.646124
vt 0.549880 0.499225
vt 0.417147 0.499234
vt 0.549880 0.491396
vt 0.417146 0.491406
vt 0.549881 0.481703
vt 0.417144 0.481712
vt 0.549881 0.473875
vt 0.417143 0.473884
vt 0.554851 0.500567
vt 0.560720 0.497579
vt 0.415632 0.505588
vt 0.413283 0.499566
vt 0.415052 0.498701
vt 0.572119 0.634772
vt 0.548733 0.660924
vt 0.418308 0.660924
vt 0.394923 0.634777
vt 0.407572 0.494529
vt 0.406644 0.496112
vt 0.397047 0.494564
vt 0.397804 0.496158
vt 0.389567 0.498773
vt 0.391440 0.499764
vt 0.387540 0.505625
vt 0.389127 0.505626
vt 0.552963 0.505615
vt 0.568832 0.497629
vt 0.574471 0.500729
vt 0.576329 0.505646
vt 0.414060 0.505626
vt 0.414460 0.636937
vt 0.549109 0.640800
vt 0.417933 0.640800
vt 0.552582 0.636936
vt 0.576419 0.636996
vt 0.549108 0.665750
vt 0.417933 0.665750
vt 0.390623 0.637001
vt 0.390693 0.505661
vt 0.415328 0.637928
vt 0.549897 0.639744
vt 0.417145 0.639744
vt 0.551715 0.637927
vt 0.551396 0.505578
vt 0.577304 0.637972
vt 0.577901 0.505609
vt 0.579026 0.637977
vt 0.579488 0.505608
vt 0.549874 0.333473
vt 0.417133 0.333480
vt 0.388016 0.637982
vt 0.389738 0.637977
vt 0.412198 0.500584
vt 0.406302 0.497603
vt 0.398196 0.497642
vt 0.392585 0.500734
vt 0.551945 0.498720
vt 0.553722 0.499583
vt 0.560356 0.496086
vt 0.559432 0.494519
vt 0.569201 0.496147
vt 0.569957 0.494546
vt 0.577433 0.498730
vt 0.575577 0.499727
vt 0.549895 0.666806
vt 0.417146 0.666806
vn -0.999992 0.000727 -0.003992
vn -0.999992 0.000727 -0.003992
vn -0.999992 0.000727 -0.003992
vn 0.000000 -1.000000 0.000000
vn 0.000000 -0.999954 -0.009619
vn 0.000000 -1.000000 0.000000
vn 0.000000 -1.000000 0.000000
vn 0.000000 -0.999954 -0.009619
vn 0.000000 -0.999954 -0.009619
vn 0.999709 0.023629 -0.004773
vn 0.999989 -0.000299 -0.004782
vn 0.999992 0.000651 -0.003994
vn 0.000000 1.000000 0.000000
vn 0.000000 0.999954 -0.009619
vn 0.000000 1.000000 0.000000
vn 0.000000 1.000000 0.000000
vn 0.000000 0.999954 -0.009619
vn 0.000000 0.999954 -0.009619
vn 0.000000 -0.001391 0.999999
vn 0.000000 -0.001389 0.999999
vn 0.000000 0.291586 0.956545
vn 0.000000 0.291586 0.956545
vn 0.000000 -0.001389 0.999999
vn 0.000000 0.291585 0.956545
vn 0.000000 -0.999954 -0.009619
vn 0.000000 -0.999954 -0.009619
vn 0.000000 -0.804108 -0.594483
vn 0.000000 -0.804108 -0.594483
vn 0.000000 -0.999954 -0.009619
vn 0.000000 -0.804108 -0.594483
vn 0.000000 -0.804108 -0.594483
vn 0.000000 -0.804108 -0.594483
vn 0.000000 -0.250451 -0.968129
vn 0.000000 -0.250451 -0.968129
vn 0.000000 -0.804108 -0.594483
vn 0.000000 -0.250451 -0.968129
vn 0.000000 -0.250451 -0.968129
vn 0.000000 -0.250451 -0.968129
vn 0.000000 0.250453 -0.968129
vn 0.000000 0.250453 -0.968129
vn 0.000000 -0.250451 -0.968129
vn 0.000000 0.250453 -0.968129
vn 0.000000 0.250453 -0.968129
vn 0.000000 0.250453 -0.968129
vn 0.000000 0.804107 -0.594485
vn 0.000000 0.804107 -0.594485
vn 0.000000 0.250453 -0.968129
vn 0.000000 0.804107 -0.594485
vn 0.000000 0.804107 -0.594485
vn 0.000000 0.804107 -0.594485
vn 0.000000 0.999954 -0.009619
vn 0.000000 0.999954 -0.009619
vn 0.000000 0.804107 -0.594485
vn 0.000000 0.999954 -0.009619
vn 1.000000 0.000000 0.000000
vn 1.000000 0.000000 0.000000
vn 0.999989 -0.000299 -0.004782
vn -1.000000 0.000000 0.000000
vn -1.000000 0.000000 0.000000
vn -1.000000 0.000000 0.000000
vn -1.000000 0.000000 0.000000
vn -1.000000 0.000000 0.000000
vn -1.000000 0.000000 0.000000
vn 0.999992 0.000651 -0.003994
vn 0.999989 -0.000299 -0.004782
vn 0.999646 -0.026209 -0.004679
vn 0.000000 -0.315089 0.949062
vn 0.000000 -0.315089 0.949062
vn 0.000000 -0.001391 0.999999
vn 0.000000 -0.001391 0.999999
vn 0.000000 -0.315089 0.949062
vn 0.000000 -0.001389 0.999999
vn -0.999645 -0.026210 -0.004679
vn -0.999989 -0.000306 -0.004782
vn -0.999992 0.000666 -0.003993
vn -1.000000 0.000000 0.000000
vn -1.000000 0.000000 0.000000
vn -1.000000 0.000000 0.000000
vn -1.000000 0.000000 0.000000
vn -1.000000 0.000000 0.000000
vn -1.000000 0.000000 0.000000
vn -1.000000 0.000000 0.000000
vn -1.000000 0.000000 0.000000
vn -1.000000 0.000000 0.000000
vn -1.000000 0.000000 0.000000
vn -1.000000 0.000000 0.000000
vn -1.000000 0.000000 0.000000
vn -1.000000 0.000000 0.000000
vn -1.000000 0.000000 0.000000
vn -1.000000 0.000000 0.000000
vn -1.000000 0.000000 0.000000
vn -1.000000 0.000000 0.000000
vn -1.000000 0.000000 0.000000
vn -1.000000 0.000000 0.000000
vn -1.000000 0.000000 0.000000
vn -1.000000 0.000000 0.000000
vn -1.000000 0.000000 0.000000
vn -1.000000 0.000000 0.000000
vn -1.000000 0.000000 0.000000
vn 0.999556 0.029411 -0.004876
vn 1.000000 0.000000 0.000000
vn 0.999989 -0.000299 -0.004782
vn 1.000000 0.000000 0.000008
vn 1.000000 0.000000 0.000007
vn 0.999989 -0.000299 -0.004782
vn 1.000000 0.000000 0.000000
vn 1.000000 0.000000 0.000008
vn 0.999989 -0.000299 -0.004782
vn 1.000000 0.000000 0.000007
vn 0.999437 -0.033208 -0.004766
vn 0.999989 -0.000299 -0.004782
vn -0.999989 -0.000306 -0.004782
vn -0.999556 0.029397 -0.004873
vn -0.999709 0.023625 -0.004771
vn -0.999709 0.023625 -0.004771
vn -0.999556 0.029397 -0.004873
vn -0.999534 0.030099 -0.004991
vn 0.000000 0.291586 0.956545
vn 0.000000 0.291585 0.956545
vn 0.000000 0.467791 0.883839
vn 0.000000 0.467791 0.883839
vn 0.000000 0.291585 0.956545
vn 0.000000 0.467791 0.883839
vn 0.999534 0.030113 -0.004993
vn 0.999556 0.029411 -0.004876
vn 0.999709 0.023629 -0.004773
vn 0.999709 0.023629 -0.004773
vn 0.999556 0.029411 -0.004876
vn 0.999989 -0.000299 -0.004782
vn 0.999989 -0.000299 -0.004782
vn 0.999437 -0.033208 -0.004766
vn 0.999646 -0.026209 -0.004679
vn 0.999646 -0.026209 -0.004679
vn 0.999437 -0.033208 -0.004766
vn 0.999411 -0.033980 -0.004876
vn 0.000000 -0.512534 0.858667
vn 0.000000 -0.512534 0.858667
vn 0.000000 -0.315089 0.949062
vn 0.000000 -0.315089 0.949062
vn 0.000000 -0.512534 0.858667
vn 0.000000 -0.315089 0.949062
vn -0.999411 -0.033981 -0.004877
vn -0.999437 -0.033209 -0.004766
vn -0.999645 -0.026210 -0.004679
vn -0.999645 -0.026210 -0.004679
vn -0.999437 -0.033209 -0.004766
vn -0.999989 -0.000306 -0.004782
vn -1.000000 0.000000 0.000000
vn -1.000000 0.000000 0.000000
vn -1.000000 0.000000 0.000000
vn -1.000000 0.000000 0.000000
vn -1.000000 0.000000 0.000000
vn -1.000000 0.000000 0.000000
vn 0.000000 0.000025 1.000000
vn 0.000000 0.000025 1.000000
vn 0.000000 0.000025 1.000000
vn 0.000000 0.000025 1.000000
vn 0.000000 0.000025 1.000000
vn 0.000000 0.000025 1.000000
vn 1.000000 0.000000 0.000000
vn 1.000000 0.000000 0.000001
vn 1.000000 0.000000 0.000000
vn 1.000000 0.000000 0.000000
vn 1.000000 0.000000 0.000001
vn 1.000000 0.000000 0.000001
vn 1.000000 0.000000 0.000001
vn 1.000000 0.000000 0.000002
vn 1.000000 0.000000 0.000001
vn 1.000000 0.000000 0.000001
vn 1.000000 0.000000 0.000002
vn 1.000000 0.000000 0.000002
vn 0.000000 -0.000026 1.000000
vn 0.000000 -0.000026 1.000000
vn 0.000000 -0.000026 1.000000
vn 0.000000 -0.000026 1.000000
vn 0.000000 -0.000026 1.000000
vn 0.000000 -0.000026 1.000000
vn -1.000000 0.000000 0.000000
vn -1.000000 0.000000 0.000000
vn -1.000000 0.000000 0.000000
vn -1.000000 0.000000 0.000000
vn -1.000000 0.000000 0.000000
vn -1.000000 0.000000 0.000000
vn -1.000000 0.000000 0.000031
vn -0.999556 0.029397 -0.004873
vn -0.999989 -0.000306 -0.004782
vn -1.000000 0.000000 0.000006
vn -1.000000 0.000000 0.000031
vn -0.999989 -0.000306 -0.004782
vn -1.000000 0.000000 0.000006
vn -1.000000 0.000000 0.000006
vn -0.999989 -0.000306 -0.004782
vn -1.000000 0.000000 0.000000
vn -1.000000 0.000000 0.000006
vn -0.999989 -0.000306 -0.004782
vn -0.999437 -0.033209 -0.004766
vn -1.000000 0.000000 0.000000
vn -0.999989 -0.000306 -0.004782
vn 1.000000 0.000000 0.000011
vn 1.000000 0.000000 0.000010
vn 1.000000 0.000000 0.000001
vn 1.000000 0.000000 0.000001
vn 1.000000 0.000000 0.000010
vn 1.000000 0.000000 0.000001
vn 1.000000 0.000000 0.000000
vn 1.000000 0.000000 0.000010
vn 1.000000 0.000000 0.000000
vn 1.000000 0.000000 0.000000
vn 1.000000 0.000000 0.000010
vn 1.000000 0.000000 0.000011
vn 1.000000 0.000000 0.000000
vn 1.000000 0.000000 0.000000
vn 1.000000 0.000000 0.000000
vn 1.000000 0.000000 0.000000
vn 1.000000 0.000000 0.000000
vn 1.000000 0.000000 0.000000
vn 1.000000 0.000000 0.000010
vn 1.000000 0.000000 0.000010
vn 1.000000 0.000000 0.000000
vn 1.000000 0.000000 0.000000
vn 1.000000 0.000000 0.000010
vn 1.000000 0.000000 0.000000
vn 1.000000 0.000000 0.000002
vn 1.000000 0.000000 0.000010
vn 1.000000 0.000000 0.000002
vn 1.000000 0.000000 0.000002
vn 1.000000 0.000000 0.000010
vn 1.000000 0.000000 0.000010
vn 0.000000 0.775855 0.630912
vn 0.000000 0.236463 0.971640
vn 0.000000 0.775855 0.630912
vn 0.000000 0.775855 0.630912
vn 0.000000 0.236463 0.971640
vn 0.000000 0.236463 0.971640
vn -0.103748 0.994499 0.014413
vn 0.000000 0.775855 0.630912
vn -0.103716 0.994501 0.014497
vn -0.103716 0.994501 0.014497
vn 0.000000 0.775855 0.630912
vn 0.000000 0.775855 0.630912
vn 0.000000 -0.252679 0.967550
vn 0.000000 -0.783577 0.621295
vn 0.000000 -0.252679 0.967550
vn 0.000000 -0.252679 0.967550
vn 0.000000 -0.783577 0.621295
vn 0.000000 -0.783577 0.621295
vn 0.000000 0.236463 0.971640
vn 0.000000 -0.252679 0.967550
vn 0.000000 0.236463 0.971640
vn 0.000000 0.236463 0.971640
vn 0.000000 -0.252679 0.967550
vn 0.000000 -0.252679 0.967550
vn 0.000000 -0.783577 0.621295
vn -0.115845 -0.993142 0.015751
vn 0.000000 -0.783577 0.621295
vn 0.000000 -0.783577 0.621295
vn -0.115845 -0.993142 0.015751
vn -0.115811 -0.993145 0.015835
vn 0.066802 0.989902 -0.125022
vn 0.057722 0.986849 -0.150986
vn 0.103753 0.994499 0.014373
vn 0.103753 0.994499 0.014373
vn 0.057722 0.986849 -0.150986
vn 0.103722 0.994501 0.014456
vn 0.066802 0.989902 -0.125022
vn -0.066799 0.989903 -0.125018
vn 0.057722 0.986849 -0.150986
vn 0.057722 0.986849 -0.150986
vn -0.066799 0.989903 -0.125018
vn -0.057719 0.986850 -0.150981
vn -0.066799 0.989903 -0.125018
vn -0.103748 0.994499 0.014413
vn -0.057719 0.986850 -0.150981
vn -0.057719 0.986850 -0.150981
vn -0.103748 0.994499 0.014413
vn -0.103716 0.994501 0.014497
vn -0.075379 -0.987627 -0.137518
vn -0.064569 -0.983556 -0.168668
vn -0.115845 -0.993142 0.015751
vn -0.115845 -0.993142 0.015751
vn -0.064569 -0.983556 -0.168668
vn -0.115811 -0.993145 0.015835
vn -0.075379 -0.987627 -0.137518
vn 0.075382 -0.987626 -0.137523
vn -0.064569 -0.983556 -0.168668
vn -0.064569 -0.983556 -0.168668
vn 0.075382 -0.987626 -0.137523
vn 0.064570 -0.983555 -0.168674
vn 0.075382 -0.987626 -0.137523
vn 0.115849 -0.993140 0.015860
vn 0.064570 -0.983555 -0.168674
vn 0.064570 -0.983555 -0.168674
vn 0.115849 -0.993140 0.015860
vn 0.115816 -0.993143 0.015944
vn -0.000005 0.775023 0.631934
vn 0.103753 0.994499 0.014373
vn -0.000005 0.775025 0.631930
vn -0.000005 0.775025 0.631930
vn 0.103753 0.994499 0.014373
vn 0.103722 0.994501 0.014456
vn -0.000013 0.236559 0.971617
vn -0.000005 0.775023 0.631934
vn -0.000013 0.236559 0.971617
vn -0.000013 0.236559 0.971617
vn -0.000005 0.775023 0.631934
vn -0.000005 0.775025 0.631930
vn -0.000012 -0.251737 0.967796
vn -0.000013 0.236559 0.971617
vn -0.000013 -0.251739 0.967795
vn -0.000013 -0.251739 0.967795
vn -0.000013 0.236559 0.971617
vn -0.000013 0.236559 0.971617
vn -0.000003 -0.783820 0.620988
vn -0.000012 -0.251737 0.967796
vn -0.000002 -0.783817 0.620992
vn -0.000002 -0.783817 0.620992
vn -0.000012 -0.251737 0.967796
vn -0.000013 -0.251739 0.967795
vn 0.115849 -0.993140 0.015860
vn -0.000003 -0.783820 0.620988
vn 0.115816 -0.993143 0.015944
vn 0.115816 -0.993143 0.015944
vn -0.000003 -0.783820 0.620988
vn -0.000002 -0.783817 0.620992
s off
g EstanteF:Books_LOD0Book171
usemtl EstanteF:lambert3SG
f 33/1/1 34/2/2 35/3/3
f 3/4/4 4/5/5 5/6/6
f 5/6/7 4/5/8 6/7/9
f 36/8/10 37/9/11 38/10/12
f 7/11/13 8/12/14 1/13/15
f 1/13/16 8/12/17 2/14/18
f 38/15/19 33/16/20 36/17/21
f 36/17/22 33/16/23 35/18/24
f 6/7/25 4/5/26 10/19/27
f 10/19/28 4/5/29 9/20/30
f 10/19/31 9/20/32 12/21/33
f 12/21/34 9/20/35 11/22/36
f 12/21/37 11/22/38 14/23/39
f 14/23/40 11/22/41 13/24/42
f 14/23/43 13/24/44 16/25/45
f 16/25/46 13/24/47 15/26/48
f 16/25/49 15/26/50 8/12/51
f 8/12/52 15/26/53 2/14/54
f 39/27/55 40/28/56 37/9/57
f 17/29/58 25/30/59 4/5/60
f 4/5/61 25/30/62 9/31/63
f 38/10/64 37/9/65 41/32/66
f 41/33/67 42/34/68 38/15/69
f 38/15/70 42/34/71 33/16/72
f 42/35/73 34/2/74 33/1/75
f 11/36/76 26/37/77 13/38/78
f 13/38/79 26/37/80 27/39/81
f 9/31/82 25/30/83 11/36/84
f 11/36/85 25/30/86 26/37/87
f 15/40/88 28/41/89 2/42/90
f 2/42/91 28/41/92 24/43/93
f 27/39/94 28/41/95 13/38/96
f 13/38/97 28/41/98 15/40/99
f 43/44/100 39/27/101 37/9/102
f 44/45/103 45/46/104 37/9/105
f 40/28/106 44/45/107 37/9/108
f 45/46/109 46/47/110 37/9/111
f 34/2/112 47/48/113 35/3/114
f 35/3/115 47/48/116 48/49/117
f 36/17/118 35/18/119 49/50/120
f 49/50/121 35/18/122 48/51/123
f 49/52/124 43/44/125 36/8/126
f 36/8/127 43/44/128 37/9/129
f 37/9/130 46/47/131 41/32/132
f 41/32/133 46/47/134 50/53/135
f 50/54/136 51/55/137 41/33/138
f 41/33/139 51/55/140 42/34/141
f 51/56/142 52/57/143 42/35/144
f 42/35/145 52/57/146 34/2/147
f 18/58/148 17/29/149 3/4/150
f 3/4/151 17/29/152 4/5/153
f 19/59/154 18/60/155 5/6/156
f 5/6/157 18/60/158 3/4/159
f 5/6/160 6/7/161 19/61/162
f 19/61/163 6/7/164 20/62/165
f 22/63/166 21/64/167 7/65/168
f 7/65/169 21/64/170 8/66/171
f 7/11/172 1/13/173 22/67/174
f 22/67/175 1/13/176 23/68/177
f 1/69/178 2/42/179 23/70/180
f 23/70/181 2/42/182 24/43/183
f 53/71/184 47/48/185 34/2/186
f 54/72/187 53/71/188 34/2/189
f 55/73/190 54/72/191 34/2/192
f 56/74/193 55/73/194 34/2/195
f 52/57/196 56/74/197 34/2/198
f 10/75/199 29/76/200 6/7/201
f 6/7/202 29/76/203 20/62/204
f 30/77/205 29/76/206 12/78/207
f 12/78/208 29/76/209 10/75/210
f 31/79/211 30/77/212 14/80/213
f 14/80/214 30/77/215 12/78/216
f 16/81/217 32/82/218 14/80/219
f 14/80/220 32/82/221 31/79/222
f 21/64/223 32/82/224 8/66/225
f 8/66/226 32/82/227 16/81/228
f 29/76/229 30/77/230 39/27/231
f 39/27/232 30/77/233 40/28/234
f 20/62/235 29/76/236 43/44/237
f 43/44/238 29/76/239 39/27/240
f 31/79/241 32/82/242 44/45/243
f 44/45/244 32/82/245 45/46/246
f 30/77/247 31/79/248 40/28/249
f 40/28/250 31/79/251 44/45/252
f 32/82/253 21/64/254 45/46/255
f 45/46/256 21/64/257 46/47/258
f 18/58/259 48/49/260 17/29/261
f 17/29/262 48/49/263 47/48/264
f 18/60/265 19/59/266 48/51/267
f 48/51/268 19/59/269 49/50/270
f 19/61/271 20/62/272 49/52/273
f 49/52/274 20/62/275 43/44/276
f 22/63/277 50/53/278 21/64/279
f 21/64/280 50/53/281 46/47/282
f 22/83/283 23/84/284 50/54/285
f 50/54/286 23/84/287 51/55/288
f 23/70/289 24/43/290 51/56/291
f 51/56/292 24/43/293 52/57/294
f 25/30/295 17/29/296 53/71/297
f 53/71/298 17/29/299 47/48/300
f 26/37/301 25/30/302 54/72/303
f 54/72/304 25/30/305 53/71/306
f 27/39/307 26/37/308 55/73/309
f 55/73/310 26/37/311 54/72/312
f 28/41/313 27/39/314 56/74/315
f 56/74/316 27/39/317 55/73/318
f 24/43/319 28/41/320 52/57/321
f 52/57/322 28/41/323 56/74/324
