# This file uses centimeters as units for non-parametric coordinates.

mtllib cajaTenis.mtl
g default
v -0.295065 0.064400 -0.197333
v -0.275279 0.064400 -0.184097
v -0.275279 0.064400 0.184199
v 0.275238 0.064400 0.184199
v 0.295023 0.064400 0.197435
v -0.295065 0.064400 0.197435
v -0.295065 0.111901 0.197435
v 0.295023 0.111901 0.197435
v 0.295023 0.111901 -0.197333
v -0.295065 0.111901 -0.197333
v -0.275279 -0.111844 0.184199
v 0.275238 -0.111844 0.184199
v 0.275238 0.064400 -0.184097
v 0.295023 0.064400 -0.197333
v 0.275238 -0.111844 -0.184097
v -0.275279 -0.111844 -0.184097
v -0.275279 -0.050763 0.184199
v -0.275279 -0.050763 -0.184097
v 0.275238 -0.050763 -0.184097
v 0.275238 -0.050763 0.184199
vt 0.146447 0.258585
vt 0.147888 0.260027
vt 0.104898 0.260027
vt 0.106339 0.258585
vt 0.147888 0.217037
vt 0.146447 0.218478
vt 0.104898 0.217037
vt 0.106339 0.218478
vt 0.104898 0.174047
vt 0.104898 0.131057
vt 0.147888 0.131057
vt 0.147888 0.174047
vt 0.671917 0.010112
vt 0.671917 0.044208
vt 0.568452 0.044208
vt 0.568452 0.010112
vt 0.775382 0.010112
vt 0.775382 0.044208
vt 0.671917 0.044208
vt 0.671917 0.010112
vt 0.104898 0.131057
vt 0.104898 0.088067
vt 0.147888 0.088067
vt 0.147888 0.131057
vt 0.147888 0.131057
vt 0.147888 0.088067
vt 0.190878 0.088067
vt 0.190878 0.131057
vt 0.104898 0.217037
vt 0.104898 0.174047
vt 0.147888 0.174047
vt 0.147888 0.217037
vt 0.333020 0.224238
vt 0.333020 0.092331
vt 0.464927 0.092331
vt 0.464927 0.224238
vt 0.061908 0.131057
vt 0.061908 0.088067
vt 0.104898 0.088067
vt 0.104898 0.131057
vt 0.352609 0.043773
vt 0.352609 0.009268
vt 0.457315 0.009268
vt 0.457315 0.043773
vt 0.568452 0.010112
vt 0.568452 0.044208
vt 0.464987 0.044208
vt 0.464987 0.010112
vt 0.647110 0.627361
vt 0.487665 0.627361
vt 0.487665 0.528294
vt 0.647110 0.528294
vt 0.161510 0.397915
vt 0.411510 0.397915
vt 0.411510 0.553246
vt 0.161510 0.553246
vt 0.987042 0.986366
vt 0.453563 0.986366
vt 0.453563 0.771635
vt 0.987041 0.771635
vt 0.806556 0.627361
vt 0.806556 0.528294
vn 0.000000 -1.000000 0.000000
vn 0.000000 -1.000000 0.000000
vn 0.000000 -1.000000 0.000000
vn 0.000000 -1.000000 0.000000
vn 0.000000 -1.000000 0.000000
vn 0.000000 -1.000000 0.000000
vn 0.000000 -1.000000 0.000000
vn 0.000000 -1.000000 0.000000
vn 0.000000 -1.000000 0.000000
vn 0.000000 -1.000000 0.000000
vn 0.000000 -1.000000 0.000000
vn 0.000000 -1.000000 0.000000
vn 0.000000 -1.000000 0.000000
vn 0.000000 -1.000000 0.000000
vn 0.000000 -1.000000 0.000000
vn 0.000000 -1.000000 0.000000
vn 0.000000 1.000000 0.000000
vn 0.000000 1.000000 0.000000
vn 0.000000 1.000000 0.000000
vn 0.000000 1.000000 0.000000
vn 0.000000 0.000000 1.000000
vn 0.000000 0.000000 1.000000
vn 0.000000 0.000000 1.000000
vn 0.000000 0.000000 1.000000
vn 1.000000 0.000000 0.000000
vn 1.000000 0.000000 0.000000
vn 1.000000 0.000000 0.000000
vn 1.000000 0.000000 0.000000
vn 0.000000 0.000000 1.000000
vn 0.000000 0.000000 1.000000
vn 0.000000 0.000000 1.000000
vn 0.000000 0.000000 1.000000
vn 1.000000 0.000000 0.000000
vn 1.000000 0.000000 0.000000
vn 1.000000 0.000000 0.000000
vn 1.000000 0.000000 0.000000
vn 0.000000 0.000000 -1.000000
vn 0.000000 0.000000 -1.000000
vn 0.000000 0.000000 -1.000000
vn 0.000000 0.000000 -1.000000
vn 0.000000 -1.000000 0.000000
vn 0.000000 -1.000000 0.000000
vn 0.000000 -1.000000 0.000000
vn 0.000000 -1.000000 0.000000
vn -1.000000 0.000000 0.000000
vn -1.000000 0.000000 0.000000
vn -1.000000 0.000000 0.000000
vn -1.000000 0.000000 0.000000
vn 0.000000 0.000000 -1.000000
vn 0.000000 0.000000 -1.000000
vn 0.000000 0.000000 -1.000000
vn 0.000000 0.000000 -1.000000
vn -1.000000 0.000000 0.000000
vn -1.000000 0.000000 0.000000
vn -1.000000 0.000000 0.000000
vn -1.000000 0.000000 0.000000
vn -1.000000 0.000000 0.000000
vn -1.000000 0.000000 0.000000
vn -1.000000 0.000000 0.000000
vn -1.000000 0.000000 0.000000
vn 0.000000 0.000000 -1.000000
vn 0.000000 0.000000 -1.000000
vn 0.000000 0.000000 -1.000000
vn 0.000000 0.000000 -1.000000
vn 1.000000 0.000000 0.000000
vn 1.000000 0.000000 0.000000
vn 1.000000 0.000000 0.000000
vn 1.000000 0.000000 0.000000
vn 0.000000 0.000000 1.000000
vn 0.000000 0.000000 1.000000
vn 0.000000 0.000000 1.000000
vn 0.000000 0.000000 1.000000
s 1
g cajaTenis:pCube18
usemtl cajaTenis:lambert9SG
f 4/1/1 5/2/2 3/4/3
f 3/4/3 5/2/2 6/3/4
s 2
f 14/5/5 5/2/6 13/6/7
f 13/6/7 5/2/6 4/1/8
s 3
f 1/7/9 14/5/10 2/8/11
f 2/8/11 14/5/10 13/6/12
s 4
f 3/4/13 6/3/14 2/8/15
f 2/8/15 6/3/14 1/7/16
s 5
f 10/9/17 7/10/18 9/12/19
f 9/12/19 7/10/18 8/11/20
s 6
f 12/13/21 20/14/22 11/16/23
f 11/16/23 20/14/22 17/15/24
s 7
f 15/17/25 19/18/26 12/20/27
f 12/20/27 19/18/26 20/19/28
s 8
f 7/21/29 6/22/30 8/24/31
f 8/24/31 6/22/30 5/23/32
s 9
f 8/25/33 5/26/34 9/28/35
f 9/28/35 5/26/34 14/27/36
s 10
f 1/29/37 10/30/38 14/32/39
f 14/32/39 10/30/38 9/31/40
s 11
f 11/33/41 16/34/42 12/36/43
f 12/36/43 16/34/42 15/35/44
s 12
f 10/37/45 1/38/46 7/40/47
f 7/40/47 1/38/46 6/39/48
s 13
f 16/41/49 18/42/50 15/44/51
f 15/44/51 18/42/50 19/43/52
s 14
f 11/45/53 17/46/54 16/48/55
f 16/48/55 17/46/54 18/47/56
s 15
f 3/49/57 2/50/58 17/52/59
f 17/52/59 2/50/58 18/51/60
s 16
f 2/53/61 13/54/62 18/56/63
f 18/56/63 13/54/62 19/55/64
s 17
f 13/57/65 4/58/66 19/60/67
f 19/60/67 4/58/66 20/59/68
s 18
f 4/61/69 3/49/70 20/62/71
f 20/62/71 3/49/70 17/52/72
g default
v -0.295065 0.064400 -0.197333
v -0.275279 0.064400 -0.184097
v -0.275279 0.064400 0.184199
v 0.275238 0.064400 0.184199
v 0.295023 0.064400 0.197435
v -0.295065 0.064400 0.197435
v -0.295065 0.111901 0.197435
v 0.295023 0.111901 0.197435
v 0.295023 0.111901 -0.197333
v -0.295065 0.111901 -0.197333
v -0.275279 -0.111844 0.184199
v 0.275238 -0.111844 0.184199
v 0.275238 0.064400 -0.184097
v 0.295023 0.064400 -0.197333
v 0.275238 -0.111844 -0.184097
v -0.275279 -0.111844 -0.184097
v -0.275279 -0.050763 0.184199
v -0.275279 -0.050763 -0.184097
v 0.275238 -0.050763 -0.184097
v 0.275238 -0.050763 0.184199
vt 0.146447 0.258585
vt 0.147888 0.260027
vt 0.104898 0.260027
vt 0.106339 0.258585
vt 0.147888 0.217037
vt 0.146447 0.218478
vt 0.104898 0.217037
vt 0.106339 0.218478
vt 0.104898 0.174047
vt 0.104898 0.131057
vt 0.147888 0.131057
vt 0.147888 0.174047
vt 0.671917 0.010112
vt 0.671917 0.044208
vt 0.568452 0.044208
vt 0.568452 0.010112
vt 0.775382 0.010112
vt 0.775382 0.044208
vt 0.671917 0.044208
vt 0.671917 0.010112
vt 0.104898 0.131057
vt 0.104898 0.088067
vt 0.147888 0.088067
vt 0.147888 0.131057
vt 0.147888 0.131057
vt 0.147888 0.088067
vt 0.190878 0.088067
vt 0.190878 0.131057
vt 0.104898 0.217037
vt 0.104898 0.174047
vt 0.147888 0.174047
vt 0.147888 0.217037
vt 0.333020 0.224238
vt 0.333020 0.092331
vt 0.464927 0.092331
vt 0.464927 0.224238
vt 0.061908 0.131057
vt 0.061908 0.088067
vt 0.104898 0.088067
vt 0.104898 0.131057
vt 0.352609 0.043773
vt 0.352609 0.009268
vt 0.457315 0.009268
vt 0.457315 0.043773
vt 0.568452 0.010112
vt 0.568452 0.044208
vt 0.464987 0.044208
vt 0.464987 0.010112
vt 0.647110 0.627361
vt 0.487665 0.627361
vt 0.487665 0.528294
vt 0.647110 0.528294
vt 0.161510 0.397915
vt 0.411510 0.397915
vt 0.411510 0.553246
vt 0.161510 0.553246
vt 0.987042 0.986366
vt 0.453563 0.986366
vt 0.453563 0.771635
vt 0.987041 0.771635
vt 0.806556 0.627361
vt 0.806556 0.528294
vn 0.000000 -1.000000 0.000000
vn 0.000000 -1.000000 0.000000
vn 0.000000 -1.000000 0.000000
vn 0.000000 -1.000000 0.000000
vn 0.000000 -1.000000 0.000000
vn 0.000000 -1.000000 0.000000
vn 0.000000 -1.000000 0.000000
vn 0.000000 -1.000000 0.000000
vn 0.000000 -1.000000 0.000000
vn 0.000000 -1.000000 0.000000
vn 0.000000 -1.000000 0.000000
vn 0.000000 -1.000000 0.000000
vn 0.000000 -1.000000 0.000000
vn 0.000000 -1.000000 0.000000
vn 0.000000 -1.000000 0.000000
vn 0.000000 -1.000000 0.000000
vn 0.000000 1.000000 0.000000
vn 0.000000 1.000000 0.000000
vn 0.000000 1.000000 0.000000
vn 0.000000 1.000000 0.000000
vn 0.000000 0.000000 1.000000
vn 0.000000 0.000000 1.000000
vn 0.000000 0.000000 1.000000
vn 0.000000 0.000000 1.000000
vn 1.000000 0.000000 0.000000
vn 1.000000 0.000000 0.000000
vn 1.000000 0.000000 0.000000
vn 1.000000 0.000000 0.000000
vn 0.000000 0.000000 1.000000
vn 0.000000 0.000000 1.000000
vn 0.000000 0.000000 1.000000
vn 0.000000 0.000000 1.000000
vn 1.000000 0.000000 0.000000
vn 1.000000 0.000000 0.000000
vn 1.000000 0.000000 0.000000
vn 1.000000 0.000000 0.000000
vn 0.000000 0.000000 -1.000000
vn 0.000000 0.000000 -1.000000
vn 0.000000 0.000000 -1.000000
vn 0.000000 0.000000 -1.000000
vn 0.000000 -1.000000 0.000000
vn 0.000000 -1.000000 0.000000
vn 0.000000 -1.000000 0.000000
vn 0.000000 -1.000000 0.000000
vn -1.000000 0.000000 0.000000
vn -1.000000 0.000000 0.000000
vn -1.000000 0.000000 0.000000
vn -1.000000 0.000000 0.000000
vn 0.000000 0.000000 -1.000000
vn 0.000000 0.000000 -1.000000
vn 0.000000 0.000000 -1.000000
vn 0.000000 0.000000 -1.000000
vn -1.000000 0.000000 0.000000
vn -1.000000 0.000000 0.000000
vn -1.000000 0.000000 0.000000
vn -1.000000 0.000000 0.000000
vn -1.000000 0.000000 0.000000
vn -1.000000 0.000000 0.000000
vn -1.000000 0.000000 0.000000
vn -1.000000 0.000000 0.000000
vn 0.000000 0.000000 -1.000000
vn 0.000000 0.000000 -1.000000
vn 0.000000 0.000000 -1.000000
vn 0.000000 0.000000 -1.000000
vn 1.000000 0.000000 0.000000
vn 1.000000 0.000000 0.000000
vn 1.000000 0.000000 0.000000
vn 1.000000 0.000000 0.000000
vn 0.000000 0.000000 1.000000
vn 0.000000 0.000000 1.000000
vn 0.000000 0.000000 1.000000
vn 0.000000 0.000000 1.000000
s 1
g cajaTenis:pCube18
f 24/63/73 25/64/74 23/66/75
f 23/66/75 25/64/74 26/65/76
s 2
f 34/67/77 25/64/78 33/68/79
f 33/68/79 25/64/78 24/63/80
s 3
f 21/69/81 34/67/82 22/70/83
f 22/70/83 34/67/82 33/68/84
s 4
f 23/66/85 26/65/86 22/70/87
f 22/70/87 26/65/86 21/69/88
s 5
f 30/71/89 27/72/90 29/74/91
f 29/74/91 27/72/90 28/73/92
s 6
f 32/75/93 40/76/94 31/78/95
f 31/78/95 40/76/94 37/77/96
s 7
f 35/79/97 39/80/98 32/82/99
f 32/82/99 39/80/98 40/81/100
s 8
f 27/83/101 26/84/102 28/86/103
f 28/86/103 26/84/102 25/85/104
s 9
f 28/87/105 25/88/106 29/90/107
f 29/90/107 25/88/106 34/89/108
s 10
f 21/91/109 30/92/110 34/94/111
f 34/94/111 30/92/110 29/93/112
s 11
f 31/95/113 36/96/114 32/98/115
f 32/98/115 36/96/114 35/97/116
s 12
f 30/99/117 21/100/118 27/102/119
f 27/102/119 21/100/118 26/101/120
s 13
f 36/103/121 38/104/122 35/106/123
f 35/106/123 38/104/122 39/105/124
s 14
f 31/107/125 37/108/126 36/110/127
f 36/110/127 37/108/126 38/109/128
s 15
f 23/111/129 22/112/130 37/114/131
f 37/114/131 22/112/130 38/113/132
s 16
f 22/115/133 33/116/134 38/118/135
f 38/118/135 33/116/134 39/117/136
s 17
f 33/119/137 24/120/138 39/122/139
f 39/122/139 24/120/138 40/121/140
s 18
f 24/123/141 23/111/142 40/124/143
f 40/124/143 23/111/142 37/114/144
