# This file uses centimeters as units for non-parametric coordinates.

mtllib RoperoPuerta.mtl
g default
v -0.095953 0.323001 0.007849
v -0.095953 0.323001 0.021825
v -0.095953 3.986906 -0.029666
v -0.095953 0.323001 0.035801
v -0.095953 3.986906 0.071034
v -0.095953 0.323001 0.047887
v -0.095953 2.327348 0.007849
v -0.095953 2.327348 -0.004237
v -0.095953 2.327348 0.021825
v -0.095953 2.327348 0.035801
v -0.095953 2.327348 0.047887
v -0.141780 2.327348 0.021825
v -0.132451 2.327348 -0.000697
v -0.109929 2.327348 0.021825
v -0.109929 2.327348 -0.010026
v -0.132451 2.327348 0.044347
v -0.109929 2.327348 0.053676
v 2.143196 0.020407 0.173879
v 2.205003 -0.025990 0.173879
v 2.243202 0.095479 0.221200
v 2.119587 0.095479 0.173879
v 2.281401 -0.025990 0.173879
v 2.143196 0.170551 0.173879
v 2.343209 0.020407 0.173879
v 2.205003 0.216948 0.173879
v 2.366816 0.095479 0.173879
v -0.132451 2.784903 -0.000697
v -0.141780 2.784903 0.021825
v -0.109929 2.784903 0.021825
v -0.109929 2.784903 -0.010026
v -0.132451 2.784903 0.044347
v 2.281401 0.216948 0.173879
v -0.095953 2.784903 0.007849
v -0.095953 2.784903 0.021825
v -0.109929 2.784903 0.053676
v -0.095953 2.784903 0.035801
v 2.343209 0.170551 0.173879
v -0.095953 2.784903 -0.004237
v -0.095953 2.784903 0.047887
v 2.218872 0.018112 0.071033
v 2.179505 0.047664 0.071033
v 2.164468 0.095479 0.071033
v 2.267532 0.018112 0.071033
v 2.179505 0.143295 0.071034
v 2.306899 0.047664 0.071034
v 2.218872 0.172847 0.071034
v 2.321936 0.095479 0.071033
v 2.267532 0.172847 0.071033
v 2.421060 -3.741511 0.071034
v 2.421060 -3.741511 -0.029666
v 2.421060 3.986906 -0.029666
v 2.421060 3.986906 0.071034
v 2.306899 0.143295 0.071034
v -0.095953 -3.741511 0.071034
v -0.095953 0.323001 -0.004237
v -0.095953 -0.134554 0.047887
v -0.095953 -0.134554 -0.004237
v -0.095953 -3.741511 -0.029666
v -0.095953 -2.030455 0.047887
v -0.095953 -2.030455 -0.004237
v -0.109929 0.323001 0.021825
v -0.132451 0.323001 0.044347
v -0.109929 0.323001 0.053676
v -0.141780 0.323001 0.021825
v -0.132451 0.323001 -0.000697
v -0.109929 0.323001 -0.010026
v -0.095953 -0.134554 0.035801
v -0.109929 -0.134554 0.021825
v -0.095953 -0.134554 0.021825
v -0.109929 -0.134554 0.053676
v -0.132451 -0.134554 0.044347
v -0.095953 -2.488010 0.047887
v -0.095953 -0.134554 0.007849
v -0.141780 -0.134554 0.021825
v -0.132451 -0.134554 -0.000697
v -0.109929 -0.134554 -0.010026
v -0.095953 -2.488010 -0.004237
v -0.095953 -2.030455 0.035801
v -0.095953 -2.030455 0.021825
v -0.095953 -2.030455 0.007849
v -0.109929 -2.030455 0.021825
v -0.132451 -2.030455 0.044347
v -0.109929 -2.030455 0.053676
v -0.141780 -2.030455 0.021825
v -0.132451 -2.030455 -0.000697
v -0.109929 -2.030455 -0.010026
v -0.095953 -2.488010 0.035801
v -0.109929 -2.488010 0.021825
v -0.095953 -2.488010 0.021825
v -0.109929 -2.488010 0.053676
v -0.132451 -2.488010 0.044347
v -0.095953 -2.488010 0.007849
v -0.141780 -2.488010 0.021825
v -0.132451 -2.488010 -0.000697
v -0.109929 -2.488010 -0.010026
vt 0.218136 0.131479
vt 0.252833 0.131479
vt 0.125000 0.250000
vt 0.287530 0.131479
vt 0.375000 0.250000
vt 0.317535 0.131479
vt 0.218136 0.196316
vt 0.188130 0.196316
vt 0.252833 0.196316
vt 0.287530 0.196316
vt 0.317535 0.196316
vt 0.017473 0.390037
vt 0.025931 0.369618
vt 0.046350 0.388882
vt 0.046350 0.361161
vt 0.025931 0.410456
vt 0.059020 0.389389
vt 0.059020 0.376928
vt 0.046350 0.418914
vt 0.059020 0.402270
vt 0.822596 0.537165
vt 0.850791 0.537165
vt 0.836694 0.631147
vt 0.794402 0.537165
vt 0.808499 0.631147
vt 0.878986 0.537165
vt 0.864888 0.631147
vt 0.766207 0.537165
vt 0.780304 0.631147
vt 0.907180 0.537165
vt 0.893083 0.631147
vt 0.738012 0.537165
vt 0.752110 0.631147
vt 0.935375 0.537165
vt 0.921277 0.631147
vt 0.025931 0.537513
vt 0.017473 0.517094
vt 0.046350 0.515939
vt 0.046350 0.545971
vt 0.025931 0.496675
vt 0.709818 0.537165
vt 0.723915 0.631147
vt 0.059020 0.529327
vt 0.059020 0.516446
vt 0.046350 0.488218
vt 0.059020 0.503985
vt 0.963569 0.537165
vt 0.949472 0.631147
vt 0.681623 0.537165
vt 0.695720 0.631147
vt 0.059020 0.366409
vt 0.059020 0.413665
vt 0.188130 0.211117
vt 0.317535 0.211117
vt 0.218136 0.211117
vt 0.252833 0.211117
vt 0.287530 0.211117
vt 0.850791 0.454718
vt 0.822596 0.454718
vt 0.794402 0.454718
vt 0.029024 0.418914
vt 0.034799 0.418914
vt 0.034799 0.488391
vt 0.029024 0.488391
vt 0.040574 0.418914
vt 0.040574 0.488391
vt 0.878986 0.454718
vt 0.025440 0.418914
vt 0.025440 0.488391
vt 0.046350 0.418914
vt 0.046350 0.488391
vt 0.766207 0.454718
vt 0.052125 0.418914
vt 0.052125 0.488391
vt 0.055709 0.488391
vt 0.055709 0.418914
vt 0.907180 0.454718
vt 0.738012 0.454718
vt 0.935375 0.454718
vt 0.709818 0.454718
vt 0.327776 0.019914
vt 0.875000 0.000000
vt 0.875000 0.250000
vt 0.625000 0.250000
vt 0.963569 0.454718
vt 0.681623 0.454718
vt 0.059020 0.540722
vt 0.059020 0.493466
vt 0.327776 0.576387
vt 0.049539 0.576387
vt 0.375000 0.000000
vt 0.299411 0.158053
vt 0.301073 0.159774
vt 0.305425 0.160838
vt 0.310804 0.160838
vt 0.315156 0.159774
vt 0.316818 0.158052
vt 0.188130 0.131479
vt 0.317535 0.116678
vt 0.188130 0.116678
vt 0.625000 0.750000
vt 0.375000 0.750000
vt 0.317535 0.055349
vt 0.188130 0.055349
vt 0.117912 0.511574
vt 0.107256 0.511147
vt 0.117912 0.501094
vt 0.090084 0.494946
vt 0.107256 0.487833
vt 0.117912 0.522406
vt 0.082971 0.512119
vt 0.090084 0.529291
vt 0.107256 0.536404
vt 0.315156 0.156331
vt 0.310804 0.155267
vt 0.305425 0.155267
vt 0.301073 0.156331
vt 0.117912 0.415551
vt 0.107256 0.404292
vt 0.117912 0.404719
vt 0.107256 0.429549
vt 0.090084 0.422436
vt 0.317535 0.040548
vt 0.117912 0.394239
vt 0.082971 0.405264
vt 0.090084 0.388092
vt 0.107256 0.380979
vt 0.188130 0.040548
vt 0.117912 0.492247
vt 0.117912 0.531990
vt 0.287530 0.116678
vt 0.287530 0.055349
vt 0.252833 0.116678
vt 0.252833 0.055349
vt 0.218136 0.116678
vt 0.218136 0.055349
vt 0.125000 0.000000
vt 0.115127 0.487980
vt 0.112113 0.487980
vt 0.112113 0.429549
vt 0.115127 0.429549
vt 0.107256 0.429549
vt 0.107256 0.487980
vt 0.102399 0.429549
vt 0.102399 0.487980
vt 0.089671 0.429549
vt 0.092685 0.429549
vt 0.092685 0.487980
vt 0.089671 0.487980
vt 0.097542 0.429549
vt 0.097542 0.487980
vt 0.117912 0.425135
vt 0.117912 0.385393
vt 0.184270 0.520287
vt 0.170934 0.519754
vt 0.184270 0.507172
vt 0.149441 0.499477
vt 0.170934 0.490575
vt 0.184270 0.533845
vt 0.140539 0.520970
vt 0.149441 0.542462
vt 0.170934 0.551364
vt 0.184270 0.400109
vt 0.170934 0.386017
vt 0.184270 0.386551
vt 0.170934 0.417628
vt 0.149441 0.408725
vt 0.184270 0.373435
vt 0.140539 0.387233
vt 0.149441 0.365741
vt 0.170934 0.356838
vt 0.287530 0.040548
vt 0.252833 0.040548
vt 0.218136 0.040548
vt 0.184270 0.496099
vt 0.184270 0.545840
vt 0.180785 0.490758
vt 0.177012 0.490758
vt 0.177012 0.417628
vt 0.180785 0.417628
vt 0.170934 0.417628
vt 0.170934 0.490758
vt 0.164855 0.417628
vt 0.164855 0.490758
vt 0.148924 0.417628
vt 0.152697 0.417628
vt 0.152697 0.490758
vt 0.148924 0.490758
vt 0.158776 0.417628
vt 0.158776 0.490758
vt 0.625000 1.000000
vt 0.375000 1.000000
vt 0.184270 0.412104
vt 0.184270 0.362363
vt 0.049539 0.019914
vt 0.625000 0.000000
vt 0.049539 0.854623
vt 0.375000 0.500000
vt 0.327776 0.854623
vt 0.375000 0.250000
vt 0.049539 0.298150
vt 0.625000 0.500000
vt 0.625000 0.250000
vt 0.327776 0.298150
vn 0.000000 -1.000000 0.000000
vn 0.000000 -1.000000 0.000000
vn 0.000000 -1.000000 0.000000
vn 0.000000 -1.000000 0.000000
vn 0.000000 -1.000000 0.000000
vn 0.000000 -1.000000 0.000000
vn 0.000000 -1.000000 0.000000
vn 0.000000 -1.000000 0.000000
vn 0.000000 -1.000000 0.000000
vn -0.220113 -0.293224 0.930360
vn -0.220113 -0.293224 0.930360
vn -0.220113 -0.293224 0.930360
vn -0.355275 -0.111723 0.928061
vn -0.355275 -0.111723 0.928061
vn -0.355275 -0.111723 0.928061
vn 0.000006 -0.363002 0.931788
vn 0.000006 -0.363002 0.931788
vn 0.000006 -0.363002 0.931788
vn -0.355274 0.111723 0.928062
vn -0.355274 0.111723 0.928062
vn -0.355274 0.111723 0.928062
vn 0.220112 -0.293227 0.930360
vn 0.220112 -0.293227 0.930360
vn 0.220112 -0.293227 0.930359
vn -0.220113 0.293224 0.930360
vn -0.220113 0.293224 0.930360
vn -0.220113 0.293224 0.930360
vn 0.355274 -0.111725 0.928061
vn 0.355274 -0.111725 0.928061
vn 0.355274 -0.111725 0.928061
vn 0.000000 1.000000 -0.000010
vn 0.000000 1.000000 -0.000010
vn 0.000000 1.000000 -0.000004
vn 0.000000 1.000000 0.000000
vn 0.000000 1.000000 0.000000
vn 0.000006 0.363002 0.931788
vn 0.000006 0.363002 0.931788
vn 0.000006 0.363002 0.931788
vn 0.000000 1.000000 0.000000
vn 0.000000 1.000000 0.000000
vn 0.000000 1.000000 0.000000
vn 0.000000 1.000000 0.000000
vn 0.355273 0.111725 0.928062
vn 0.355273 0.111725 0.928062
vn 0.355273 0.111725 0.928062
vn 0.220113 0.293227 0.930359
vn 0.220113 0.293227 0.930359
vn 0.220113 0.293227 0.930359
vn 0.000000 -1.000000 0.000000
vn 0.000000 -1.000000 0.000000
vn -1.000000 0.000000 0.000000
vn -1.000000 0.000000 0.000000
vn -1.000000 0.000000 0.000000
vn -0.552735 -0.736319 -0.390279
vn -0.552735 -0.736319 -0.390280
vn -0.552736 -0.736318 -0.390280
vn -0.552737 -0.736318 -0.390280
vn -0.880679 -0.276957 -0.384318
vn -0.880678 -0.276958 -0.384317
vn -0.880678 -0.276959 -0.384317
vn -0.880678 -0.276961 -0.384316
vn -0.382682 0.000000 -0.923880
vn -0.382682 0.000000 -0.923880
vn -0.382687 0.000000 -0.923878
vn -0.382687 0.000000 -0.923878
vn -0.923879 0.000000 -0.382686
vn -0.923879 0.000000 -0.382686
vn -0.923877 0.000000 -0.382689
vn -0.923877 0.000000 -0.382689
vn 0.000000 -0.919064 -0.394108
vn -0.000002 -0.919065 -0.394107
vn -0.000001 -0.919065 -0.394107
vn -0.000003 -0.919065 -0.394107
vn 0.382689 0.000000 -0.923877
vn 0.382689 0.000000 -0.923877
vn 0.382682 0.000000 -0.923880
vn 0.382682 0.000000 -0.923880
vn -0.923877 0.000000 0.382690
vn -0.923877 0.000000 0.382690
vn -0.923879 0.000000 0.382685
vn -0.923879 0.000000 0.382685
vn -0.880679 0.276959 -0.384317
vn -0.880679 0.276958 -0.384317
vn -0.880679 0.276958 -0.384317
vn -0.880679 0.276957 -0.384317
vn -0.382686 0.000000 0.923878
vn -0.382686 0.000000 0.923878
vn -0.382687 0.000000 0.923878
vn -0.382687 0.000000 0.923878
vn 0.382690 0.000000 0.923877
vn 0.382690 0.000000 0.923877
vn 0.382689 0.000000 0.923877
vn 0.382689 0.000000 0.923877
vn 0.552735 -0.736317 -0.390285
vn 0.552734 -0.736318 -0.390283
vn 0.552734 -0.736318 -0.390284
vn 0.552733 -0.736319 -0.390283
vn -0.552735 0.736320 -0.390279
vn -0.552735 0.736318 -0.390281
vn -0.552735 0.736319 -0.390280
vn -0.552736 0.736318 -0.390281
vn 0.880679 -0.276955 -0.384319
vn 0.880680 -0.276947 -0.384322
vn 0.880679 -0.276950 -0.384321
vn 0.880680 -0.276946 -0.384323
vn -0.000006 0.919064 -0.394109
vn -0.000003 0.919065 -0.394107
vn -0.000004 0.919064 -0.394108
vn -0.000003 0.919065 -0.394107
vn 1.000000 0.000000 -0.000001
vn 1.000000 0.000000 -0.000001
vn 1.000000 0.000000 -0.000001
vn 1.000000 0.000000 -0.000001
vn 0.880681 0.276944 -0.384322
vn 0.880681 0.276945 -0.384321
vn 0.880681 0.276947 -0.384320
vn 0.880681 0.276950 -0.384318
vn 0.552733 0.736320 -0.390282
vn 0.552733 0.736319 -0.390283
vn 0.552734 0.736318 -0.390283
vn 0.552735 0.736317 -0.390284
vn 0.000000 1.000000 0.000000
vn 0.000000 1.000000 0.000000
vn 0.000000 1.000000 0.000000
vn 0.000000 1.000000 -0.000007
vn 0.000000 1.000000 -0.000000
vn 0.000000 1.000000 -0.000008
vn 0.000010 0.000000 1.000000
vn -0.000001 0.000000 1.000000
vn -0.000000 0.000000 1.000000
vn 0.000000 0.000000 1.000000
vn 0.000000 0.000000 1.000000
vn 0.000000 0.000000 1.000000
vn 0.000000 -0.000000 1.000000
vn 0.000003 -0.000002 1.000000
vn 0.000000 -0.000000 1.000000
vn -0.000002 0.000000 1.000000
vn 0.000001 0.000000 1.000000
vn -0.000003 -0.000000 1.000000
vn 0.000007 -0.000000 1.000000
vn -0.000010 0.000001 1.000000
vn -0.000000 0.000000 -1.000000
vn -0.000000 0.000000 -1.000000
vn -0.000000 0.000000 -1.000000
vn 0.000000 0.000000 -1.000000
vn 0.000000 1.000000 0.000000
vn 0.000000 1.000000 0.000000
vn 0.000000 1.000000 0.000000
vn 0.000000 1.000000 0.000000
vn 0.000000 1.000000 0.000000
vn 0.000000 1.000000 0.000000
vn 0.000000 1.000000 0.000001
vn 0.000000 1.000000 0.000001
vn 0.000000 1.000000 0.000000
vn 0.000000 -1.000000 0.000000
vn 0.000000 -1.000000 0.000000
vn 0.000000 -1.000000 0.000000
vn 0.000000 -1.000000 0.000000
vn 0.000000 -1.000000 0.000000
vn 0.000000 -1.000000 0.000000
vn 0.000000 -1.000000 0.000000
vn 0.000000 -1.000000 0.000000
vn 0.000000 -1.000000 0.000000
vn 0.000000 1.000000 0.000000
vn 0.000000 1.000000 0.000000
vn -1.000000 0.000000 0.000000
vn -1.000000 0.000000 0.000000
vn -1.000000 0.000000 0.000000
vn -1.000000 0.000000 0.000000
vn -1.000000 -0.000000 0.000000
vn -1.000000 0.000000 0.000000
vn -1.000000 -0.000000 0.000000
vn -1.000000 0.000000 0.000000
vn -1.000000 0.000000 0.000000
vn -1.000000 -0.000000 0.000000
vn -1.000000 -0.000000 0.000000
vn -1.000000 0.000000 0.000000
vn -1.000000 0.000000 0.000000
vn -1.000000 0.000000 0.000000
vn -1.000000 0.000000 0.000000
vn -1.000000 0.000000 0.000000
vn -1.000000 0.000000 0.000000
vn -1.000000 0.000000 0.000000
vn -1.000000 0.000000 0.000000
vn -1.000000 0.000000 0.000000
vn -1.000000 0.000000 0.000000
vn -1.000000 0.000000 0.000000
vn -1.000000 0.000000 0.000000
vn -1.000000 -0.000000 0.000000
vn -1.000000 -0.000000 0.000000
vn 0.000000 0.000000 0.000000
vn -1.000000 0.000000 0.000000
vn -1.000000 0.000000 0.000000
vn -1.000000 0.000000 0.000000
vn -1.000000 0.000000 0.000000
vn -1.000000 0.000000 0.000000
vn 0.382689 0.000000 0.923877
vn 0.382690 0.000000 0.923877
vn 0.382690 0.000000 0.923877
vn 0.382689 0.000000 0.923877
vn -0.382686 0.000000 0.923878
vn -0.382686 0.000000 0.923878
vn -0.382686 0.000000 0.923878
vn -0.382686 0.000000 0.923878
vn -0.923877 0.000000 0.382689
vn -0.923877 0.000000 0.382689
vn -0.923879 0.000000 0.382686
vn -0.923879 0.000000 0.382686
vn 0.382689 0.000000 -0.923877
vn 0.382689 0.000000 -0.923877
vn 0.382682 0.000000 -0.923880
vn 0.382682 0.000000 -0.923880
vn -0.923879 0.000000 -0.382686
vn -0.923879 0.000000 -0.382686
vn -0.923877 0.000000 -0.382689
vn -0.923877 0.000000 -0.382689
vn -0.382682 0.000000 -0.923880
vn -0.382682 0.000000 -0.923880
vn -0.382686 0.000000 -0.923878
vn -0.382686 0.000000 -0.923878
vn 0.000000 -1.000000 0.000000
vn 0.000000 -1.000000 0.000000
vn 0.000000 1.000000 0.000000
vn 0.000000 1.000000 0.000000
vn 0.000000 1.000000 0.000000
vn 0.000000 1.000000 0.000000
vn 0.000000 1.000000 0.000000
vn 0.000000 1.000000 0.000000
vn 0.000000 1.000000 0.000000
vn 0.000000 1.000000 0.000000
vn 0.000000 1.000000 0.000000
vn 0.000000 -1.000000 0.000000
vn 0.000000 -1.000000 0.000002
vn 0.000000 -1.000000 0.000000
vn 0.000000 -1.000000 0.000000
vn 0.000000 -1.000000 0.000005
vn 0.000000 -1.000000 0.000000
vn 0.000000 -1.000000 0.000005
vn 0.000000 -1.000000 0.000000
vn 0.000000 -1.000000 0.000000
vn 0.000000 1.000000 0.000000
vn 0.000000 1.000000 0.000000
vn 0.382690 0.000000 0.923877
vn 0.382690 0.000000 0.923877
vn 0.382689 0.000000 0.923877
vn 0.382689 0.000000 0.923877
vn -0.382686 0.000000 0.923878
vn -0.382686 0.000000 0.923878
vn -0.382687 0.000000 0.923878
vn -0.382687 0.000000 0.923878
vn -0.923877 0.000000 0.382690
vn -0.923877 0.000000 0.382690
vn -0.923879 0.000000 0.382685
vn -0.923879 0.000000 0.382685
vn 0.382689 0.000000 -0.923877
vn 0.382689 0.000000 -0.923877
vn 0.382682 0.000000 -0.923880
vn 0.382682 0.000000 -0.923880
vn -0.923879 0.000000 -0.382686
vn -0.923879 0.000000 -0.382686
vn -0.923877 0.000000 -0.382689
vn -0.923877 0.000000 -0.382689
vn -0.382682 0.000000 -0.923880
vn -0.382682 0.000000 -0.923880
vn -0.382686 0.000000 -0.923878
vn -0.382687 0.000000 -0.923878
vn 0.000000 -1.000000 0.000000
vn 0.000000 -1.000000 -0.000007
vn 0.000000 -1.000000 -0.000000
vn 0.000000 -1.000000 -0.000008
vn 0.000000 -1.000000 0.000000
vn 0.000000 -1.000000 0.000000
s 1
g pCube12
usemtl lambert8SG
f 12/12/1 13/13/2 14/14/3
f 13/13/2 15/15/4 14/14/3
f 16/16/5 12/12/1 14/14/3
f 9/17/6 14/14/3 7/18/7
f 17/19/8 16/16/5 14/14/3
f 10/20/9 14/14/3 9/17/6
s off
f 18/21/10 19/22/11 20/23/12
f 21/24/13 18/21/14 20/25/15
f 19/22/16 22/26/17 20/27/18
f 23/28/19 21/24/20 20/29/21
f 22/26/22 24/30/23 20/31/24
f 25/32/25 23/28/26 20/33/27
f 24/30/28 26/34/29 20/35/30
s 3
f 27/36/31 28/37/32 29/38/33
f 30/39/34 27/36/31 29/38/33
f 28/37/32 31/40/35 29/38/33
s off
f 32/41/36 25/32/37 20/42/38
s 3
f 33/43/39 29/38/33 34/44/40
f 31/40/35 35/45/41 29/38/33
f 34/44/40 29/38/33 36/46/42
s off
f 26/34/43 37/47/44 20/48/45
f 37/49/46 32/41/47 20/50/48
s 1
f 14/14/3 15/15/4 7/18/7
f 7/18/7 15/15/4 8/51/49
f 11/52/50 17/19/8 10/20/9
f 10/20/9 17/19/8 14/14/3
s 4
usemtl lambert2SG
f 39/54/51 3/3/52 36/57/53
s 5
usemtl lambert8SG
f 19/22/54 18/21/55 40/58/56
f 40/58/56 18/21/55 41/59/57
s 6
f 18/21/58 21/24/59 41/59/60
f 41/59/60 21/24/59 42/60/61
s 7
f 15/61/62 13/62/63 30/64/64
f 30/64/64 13/62/63 27/63/65
s 8
f 13/62/66 12/65/67 27/63/68
f 27/63/68 12/65/67 28/66/69
s 9
f 43/67/70 22/26/71 40/58/72
f 40/58/72 22/26/71 19/22/73
s 10
f 8/68/74 15/61/75 38/69/76
f 38/69/76 15/61/75 30/64/77
s 11
f 12/65/78 16/70/79 28/66/80
f 28/66/80 16/70/79 31/71/81
s 12
f 42/60/82 21/24/83 44/72/84
f 44/72/84 21/24/83 23/28/85
s 13
f 16/70/86 17/73/87 31/71/88
f 31/71/88 17/73/87 35/74/89
s 14
f 39/75/90 35/74/91 11/76/92
f 11/76/92 35/74/91 17/73/93
s 15
f 45/77/94 24/30/95 43/67/96
f 43/67/96 24/30/95 22/26/97
s 16
f 44/72/98 23/28/99 46/78/100
f 46/78/100 23/28/99 25/32/101
s 17
f 47/79/102 26/34/103 45/77/104
f 45/77/104 26/34/103 24/30/105
s 18
f 46/78/106 25/32/107 48/80/108
f 48/80/108 25/32/107 32/41/109
s 19
usemtl lambert2SG
f 49/196/110 50/82/111 52/203/112
f 52/203/112 50/82/111 51/83/113
s 20
usemtl lambert8SG
f 37/47/114 26/34/115 53/85/116
f 53/85/116 26/34/115 47/79/117
s 21
f 32/41/118 37/49/119 48/80/120
f 48/80/120 37/49/119 53/86/121
s 3
f 38/87/122 30/39/34 33/43/39
f 33/43/39 30/39/34 29/38/33
f 29/38/33 35/45/41 36/46/42
f 36/46/42 35/45/41 39/88/123
s 22
usemtl lambert2SG
f 5/200/124 52/84/125 3/198/126
f 3/198/126 52/84/125 51/202/127
s 23
f 45/114/128 43/115/129 49/81/130
f 49/81/130 43/115/129 54/195/131
f 43/115/129 40/116/132 54/195/131
f 5/201/133 54/195/131 52/204/134
f 40/116/132 41/117/135 54/195/131
f 41/117/135 42/92/136 54/195/131
f 45/114/128 49/81/130 47/97/137
f 49/81/130 52/204/134 47/97/137
f 47/97/137 52/204/134 53/96/138
f 53/96/138 52/204/134 48/95/139
f 48/95/139 52/204/134 46/94/140
f 46/94/140 52/204/134 44/93/141
f 54/195/131 42/92/136 52/204/134
f 42/92/136 44/93/141 52/204/134
s 25
f 3/90/142 51/89/143 58/197/144
f 58/197/144 51/89/143 50/199/145
s 26
usemtl lambert8SG
f 2/105/146 61/106/147 4/107/148
f 62/108/149 63/109/150 61/106/147
f 1/110/151 61/106/147 2/105/146
f 64/111/152 62/108/149 61/106/147
f 65/112/153 64/111/152 61/106/147
f 66/113/154 65/112/153 61/106/147
s 27
f 67/118/155 68/119/156 69/120/157
f 70/121/158 71/122/159 68/119/156
f 69/120/157 68/119/156 73/124/160
f 71/122/159 74/125/161 68/119/156
f 74/125/161 75/126/162 68/119/156
f 75/126/162 76/127/163 68/119/156
s 26
f 61/106/147 63/109/150 4/107/148
f 4/107/148 63/109/150 6/129/164
f 55/130/165 66/113/154 1/110/151
f 1/110/151 66/113/154 61/106/147
s 4
usemtl lambert2SG
f 3/3/52 39/54/51 5/5/166
f 5/5/166 39/54/51 54/91/167
f 39/54/51 11/11/168 54/91/167
f 36/57/53 3/3/52 34/56/169
f 34/56/169 3/3/52 33/55/170
f 54/91/167 72/123/171 58/137/172
f 72/123/171 87/172/173 58/137/172
f 87/172/173 89/173/174 58/137/172
f 89/173/174 92/174/175 58/137/172
f 92/174/175 77/128/176 58/137/172
f 58/137/172 77/128/176 3/3/52
f 77/128/176 60/104/177 3/3/52
f 33/55/170 3/3/52 38/53/178
f 60/104/177 57/100/179 3/3/52
f 57/100/179 55/98/180 3/3/52
f 57/100/179 60/104/177 73/135/181
f 60/104/177 80/136/182 73/135/181
f 73/135/181 80/136/182 69/133/183
f 80/136/182 79/134/184 69/133/183
f 69/133/183 79/134/184 67/131/185
f 79/134/184 78/132/186 67/131/185
f 67/131/185 78/132/186 56/99/187
f 78/132/186 59/103/188 56/99/187
f 55/98/180 1/1/189 3/3/52
f 1/1/189 2/2/190 3/3/52
f 4/4/191 6/6/192 2/2/190
f 56/99/187 59/103/188 6/6/192
f 59/103/188 72/123/171 6/6/192
f 72/123/171 54/91/167 6/6/192
f 54/91/167 11/11/168 6/6/192
f 6/6/192 11/11/168 2/2/190
f 11/11/168 10/10/193 2/2/190
f 10/10/193 9/9/194 2/2/190
f 9/9/194 7/7/195 2/2/190
f 7/7/195 8/8/196 2/2/190
f 2/2/190 8/8/196 3/3/52
f 8/8/196 38/53/178 3/3/52
s 31
usemtl lambert8SG
f 6/138/197 63/139/198 56/141/199
f 56/141/199 63/139/198 70/140/200
s 32
f 71/142/201 70/140/202 62/143/203
f 62/143/203 70/140/202 63/139/204
s 33
f 74/144/205 71/142/206 64/145/207
f 64/145/207 71/142/206 62/143/208
s 34
f 57/146/209 76/147/210 55/149/211
f 55/149/211 76/147/210 66/148/212
s 35
f 75/150/213 74/144/214 65/151/215
f 65/151/215 74/144/214 64/145/216
s 36
f 76/147/217 75/150/218 66/148/219
f 66/148/219 75/150/218 65/151/220
s 27
f 56/152/221 70/121/158 67/118/155
f 67/118/155 70/121/158 68/119/156
f 68/119/156 76/127/163 73/124/160
f 73/124/160 76/127/163 57/153/222
s 37
f 79/154/223 81/155/224 78/156/225
f 82/157/226 83/158/227 81/155/224
f 80/159/228 81/155/224 79/154/223
f 84/160/229 82/157/226 81/155/224
f 85/161/230 84/160/229 81/155/224
f 86/162/231 85/161/230 81/155/224
s 38
f 87/163/232 88/164/233 89/165/234
f 90/166/235 91/167/236 88/164/233
f 89/165/234 88/164/233 92/168/237
f 91/167/236 93/169/238 88/164/233
f 93/169/238 94/170/239 88/164/233
f 94/170/239 95/171/240 88/164/233
s 37
f 81/155/224 83/158/227 78/156/225
f 78/156/225 83/158/227 59/175/241
f 60/176/242 86/162/231 80/159/228
f 80/159/228 86/162/231 81/155/224
s 40
f 59/177/243 83/178/244 72/180/245
f 72/180/245 83/178/244 90/179/246
s 41
f 91/181/247 90/179/248 82/182/249
f 82/182/249 90/179/248 83/178/250
s 42
f 93/183/251 91/181/252 84/184/253
f 84/184/253 91/181/252 82/182/254
s 43
f 77/185/255 95/186/256 60/188/257
f 60/188/257 95/186/256 86/187/258
s 44
f 94/189/259 93/183/260 85/190/261
f 85/190/261 93/183/260 84/184/262
s 45
f 95/186/263 94/189/264 86/187/265
f 86/187/265 94/189/264 85/190/266
s 46
usemtl lambert2SG
f 58/102/267 50/101/268 54/192/269
f 54/192/269 50/101/268 49/191/270
s 38
usemtl lambert8SG
f 72/193/271 90/166/235 87/163/232
f 87/163/232 90/166/235 88/164/233
f 88/164/233 95/171/240 92/168/237
f 92/168/237 95/171/240 77/194/272
