# This file uses centimeters as units for non-parametric coordinates.

mtllib puertaEntrada.mtl
g default
v 1.027278 0.025559 -0.149166
v 1.012148 0.039475 -0.149166
v 1.051759 0.068871 -0.149166
v 1.003867 0.058473 -0.149166
v 1.046641 0.019133 -0.149166
v 1.003867 0.079269 -0.149166
v 1.066890 0.021307 -0.149166
v 1.012148 0.098268 -0.149166
v 1.084522 0.031705 -0.149166
v 1.027278 0.112184 -0.149166
v 1.096488 0.048529 -0.149166
v 1.046641 0.118610 -0.149166
v 1.100718 0.068871 -0.149166
v 1.066890 0.116436 -0.149166
v 1.096488 0.089213 -0.149166
v 1.084522 0.106038 -0.149166
v 1.012148 0.039475 0.152923
v 1.027278 0.025559 0.152923
v 1.051759 0.068871 0.152923
v 1.003867 0.058473 0.152923
v 1.046641 0.019133 0.152923
v 1.003867 0.079269 0.152923
v 1.066890 0.021307 0.152923
v 1.012148 0.098268 0.152923
v 1.084522 0.031705 0.152923
v 1.027278 0.112184 0.152923
v 1.096488 0.048529 0.152923
v 1.046641 0.118610 0.152923
v 1.100718 0.068871 0.152923
v 1.066890 0.116436 0.152923
v 1.096488 0.089213 0.152923
v 1.084522 0.106038 0.152923
v -0.036948 -1.569784 0.074464
v -0.036948 -1.569784 -0.074843
v 1.192979 -1.569784 -0.074843
v 1.192979 -1.569784 0.074464
v -0.036948 1.575091 0.074464
v -0.036948 1.575091 -0.074843
v 0.983884 -0.083816 -0.091601
v 1.122045 -0.083816 -0.091601
v 1.122045 -0.083816 -0.074843
v 0.983884 -0.083816 -0.074843
v 0.983884 0.133825 -0.074843
v 0.983884 0.133825 -0.091601
v 1.027278 0.025559 -0.091601
v 1.012148 0.039475 -0.091601
v 1.003867 0.058473 -0.091601
v 1.046641 0.019133 -0.091601
v 1.003867 0.079269 -0.091601
v 1.066890 0.021307 -0.091601
v 1.012148 0.098268 -0.091601
v 1.084522 0.031705 -0.091601
v 1.027278 0.112184 -0.091601
v 1.096488 0.048529 -0.091601
v 1.046641 0.118610 -0.091601
v 1.100718 0.068871 -0.091601
v 1.066890 0.116436 -0.091601
v 1.122045 -0.083816 0.074464
v 1.122045 -0.083816 0.097068
v 0.983884 -0.083816 0.097068
v 0.983884 -0.083816 0.074464
v 1.096488 0.089213 -0.091601
v 1.122045 0.133825 -0.091601
v 1.122045 0.133825 -0.074843
v 1.084522 0.106038 -0.091601
v 0.983884 0.133825 0.097068
v 0.983884 0.133825 0.074464
v 1.027278 0.025559 0.097068
v 1.012148 0.039475 0.097068
v 1.003867 0.058473 0.097068
v 1.046641 0.019133 0.097068
v 1.003867 0.079269 0.097068
v 1.192979 1.575091 -0.074843
v 1.192979 1.575091 0.074464
v 1.066890 0.021307 0.097068
v 1.012148 0.098268 0.097068
v 1.084522 0.031705 0.097068
v 1.122045 0.133825 0.074464
v 1.122045 0.133825 0.097068
v 1.027278 0.112184 0.097068
v 1.096488 0.048529 0.097068
v 1.046641 0.118610 0.097068
v 1.100718 0.068871 0.097068
v 1.066890 0.116436 0.097068
v 1.096488 0.089213 0.097068
v 1.084522 0.106038 0.097068
vt 0.236963 0.314712
vt 0.194165 0.276176
vt 0.306213 0.189228
vt 0.170740 0.223564
vt 0.291736 0.332509
vt 0.170740 0.165973
vt 0.349011 0.326489
vt 0.194165 0.113360
vt 0.398887 0.297693
vt 0.236963 0.074824
vt 0.432738 0.251101
vt 0.291736 0.057028
vt 0.444712 0.194768
vt 0.349012 0.063048
vt 0.432738 0.138436
vt 0.398887 0.091843
vt 0.194165 0.722757
vt 0.236963 0.684221
vt 0.306213 0.798624
vt 0.170740 0.775369
vt 0.291736 0.666424
vt 0.170740 0.832960
vt 0.349012 0.672444
vt 0.194165 0.885572
vt 0.398887 0.701240
vt 0.236963 0.924108
vt 0.432738 0.747832
vt 0.291736 0.941905
vt 0.444712 0.804164
vt 0.349011 0.935885
vt 0.432738 0.860497
vt 0.398887 0.907089
vt 0.177405 0.749743
vt 0.302269 0.749743
vt 0.302269 0.874607
vt 0.177405 0.874607
vt 0.177405 0.624878
vt 0.302269 0.624878
vt 0.195414 0.721065
vt 0.417012 0.721065
vt 0.417012 0.740748
vt 0.195414 0.740748
vt 0.087231 0.056269
vt 0.106914 0.056269
vt 0.106914 0.277868
vt 0.087231 0.277868
vt 0.313600 0.333267
vt 0.328373 0.333267
vt 0.328373 0.396766
vt 0.313600 0.396766
vt 0.298826 0.333267
vt 0.298826 0.396766
vt 0.343146 0.333267
vt 0.343146 0.396766
vt 0.284053 0.333267
vt 0.284053 0.396766
vt 0.357919 0.333267
vt 0.357919 0.396766
vt 0.269280 0.333267
vt 0.269280 0.396766
vt 0.372693 0.333267
vt 0.372693 0.396766
vt 0.254507 0.333267
vt 0.254507 0.396766
vt 0.387466 0.333267
vt 0.387466 0.396766
vt 0.239733 0.333267
vt 0.239733 0.396766
vt 0.402239 0.333267
vt 0.402239 0.396766
vt 0.224960 0.333267
vt 0.224960 0.396766
vt 0.417012 0.916115
vt 0.417012 0.942663
vt 0.195414 0.942663
vt 0.195414 0.916115
vt 0.417012 0.333267
vt 0.417012 0.396766
vt 0.089884 0.369998
vt 0.113884 0.369998
vt 0.113884 0.640195
vt 0.089884 0.640195
vt 0.210187 0.333267
vt 0.210187 0.396766
vt 0.195414 0.333267
vt 0.195414 0.396766
vt 0.168865 0.056269
vt 0.195414 0.056269
vt 0.195414 0.277868
vt 0.168865 0.277868
vt 0.417012 0.479783
vt 0.417012 0.499466
vt 0.195414 0.499466
vt 0.195414 0.479783
vt 0.328373 0.604885
vt 0.328373 0.666498
vt 0.313600 0.666498
vt 0.313600 0.604885
vt 0.298826 0.666498
vt 0.298826 0.604885
vt 0.343146 0.604885
vt 0.343146 0.666498
vt 0.284053 0.666498
vt 0.284053 0.604885
vt 0.177405 0.375149
vt 0.302269 0.375149
vt 0.302269 0.500014
vt 0.177405 0.500014
vt 0.357919 0.604885
vt 0.357919 0.666498
vt 0.269280 0.666498
vt 0.269280 0.604885
vt 0.372693 0.604885
vt 0.372693 0.666498
vt 0.417012 0.056269
vt 0.443561 0.056269
vt 0.443561 0.277868
vt 0.417012 0.277868
vt 0.254507 0.666498
vt 0.254507 0.604885
vt 0.387466 0.604885
vt 0.387466 0.666498
vt 0.417012 0.304416
vt 0.195414 0.304416
vt 0.239733 0.666498
vt 0.239733 0.604885
vt 0.402239 0.604885
vt 0.402239 0.666498
vt 0.224960 0.666498
vt 0.224960 0.604885
vt 0.417012 0.604885
vt 0.417012 0.666498
vt 0.210187 0.666498
vt 0.210187 0.604885
vt 0.195414 0.666498
vt 0.195414 0.604885
vt 0.452275 0.000000
vt 0.040572 0.000000
vt 0.040572 1.000000
vt 0.452275 1.000000
vt 0.445072 0.008564
vt 0.870860 0.468598
vt 0.870860 0.535976
vt 0.445072 0.982172
vt 0.428530 0.472505
vt 0.428530 0.541710
vt 0.928488 0.535976
vt 0.928488 0.468598
vt 0.328546 0.517172
vt 0.296071 0.514958
vt 0.265016 0.521501
vt 0.240749 0.535670
vt 0.227468 0.555014
vt 0.227468 0.576188
vt 0.240749 0.595532
vt 0.265016 0.609701
vt 0.296071 0.616244
vt 0.328546 0.260162
vt 0.356825 0.249575
vt 0.376018 0.232445
vt 0.382808 0.211733
vt 0.376019 0.191021
vt 0.356825 0.173891
vt 0.328546 0.163303
vt 0.296071 0.161090
vt 0.328546 0.614031
vt 0.356825 0.603444
vt 0.376019 0.586313
vt 0.382808 0.565601
vt 0.376018 0.544889
vt 0.356825 0.527759
vt 0.265016 0.167633
vt 0.240749 0.181802
vt 0.227468 0.201146
vt 0.227468 0.222320
vt 0.240749 0.241664
vt 0.265016 0.255833
vt 0.296071 0.262376
vt 0.958074 0.982172
vt 0.958074 0.008564
vt 0.382282 0.541710
vt 0.382282 0.472505
vn -0.000000 0.000000 -1.000000
vn 0.000000 0.000000 -1.000000
vn -0.000000 0.000000 -1.000000
vn 0.000000 0.000000 -1.000000
vn 0.000000 0.000000 -1.000000
vn -0.000000 0.000000 -1.000000
vn 0.000000 0.000000 -1.000000
vn -0.000000 0.000000 -1.000000
vn -0.000000 0.000000 -1.000000
vn 0.000000 0.000000 -1.000000
vn 0.000000 0.000000 -1.000000
vn 0.000000 0.000000 -1.000000
vn 0.000000 0.000000 -1.000000
vn 0.000000 0.000000 -1.000000
vn -0.000000 0.000000 -1.000000
vn -0.000000 0.000000 -1.000000
vn 0.000000 0.000000 1.000000
vn 0.000000 0.000000 1.000000
vn 0.000000 0.000000 1.000000
vn 0.000000 0.000000 1.000000
vn 0.000000 0.000000 1.000000
vn 0.000000 0.000000 1.000000
vn 0.000000 0.000000 1.000000
vn 0.000000 0.000000 1.000000
vn 0.000000 0.000000 1.000000
vn 0.000000 0.000000 1.000000
vn 0.000000 0.000000 1.000000
vn 0.000000 0.000000 1.000000
vn 0.000000 0.000000 1.000000
vn 0.000000 0.000000 1.000000
vn 0.000000 0.000000 1.000000
vn 0.000000 0.000000 1.000000
vn 0.000000 -1.000000 0.000000
vn 0.000000 -1.000000 0.000000
vn 0.000000 -1.000000 0.000000
vn 0.000000 -1.000000 0.000000
vn -1.000000 0.000000 0.000000
vn -1.000000 0.000000 0.000000
vn -1.000000 0.000000 0.000000
vn -1.000000 0.000000 0.000000
vn 0.000000 -1.000000 0.000000
vn 0.000000 -1.000000 0.000000
vn 0.000000 -1.000000 0.000000
vn 0.000000 -1.000000 0.000000
vn -1.000000 0.000000 0.000000
vn -1.000000 0.000000 0.000000
vn -1.000000 0.000000 0.000000
vn -1.000000 0.000000 0.000000
vn -0.814900 -0.579602 0.000000
vn -0.507987 -0.861365 0.000000
vn -0.814896 -0.579607 0.000000
vn -0.507985 -0.861366 0.000000
vn -0.979028 -0.203727 0.000000
vn -0.979027 -0.203729 0.000000
vn -0.106743 -0.994287 0.000000
vn -0.106743 -0.994287 0.000000
vn -0.979027 0.203729 0.000000
vn -0.979028 0.203727 0.000000
vn 0.314991 -0.949095 0.000000
vn 0.314991 -0.949095 0.000000
vn -0.814898 0.579604 0.000000
vn -0.814902 0.579599 0.000000
vn 0.676957 -0.736022 0.000000
vn 0.676960 -0.736020 0.000000
vn -0.507985 0.861366 0.000000
vn -0.507987 0.861365 0.000000
vn 0.916733 -0.399501 0.000000
vn 0.916735 -0.399497 0.000000
vn -0.106737 0.994287 0.000000
vn -0.106737 0.994287 0.000000
vn 1.000000 0.000000 0.000000
vn 1.000000 0.000000 0.000000
vn 0.314991 0.949095 0.000000
vn 0.314991 0.949095 0.000000
vn 0.000000 -1.000000 0.000000
vn 0.000000 -1.000000 0.000000
vn 0.000000 -1.000000 0.000000
vn 0.000000 -1.000000 0.000000
vn 0.916734 0.399499 0.000000
vn 0.916732 0.399503 0.000000
vn 1.000000 0.000000 0.000000
vn 1.000000 0.000000 0.000000
vn 1.000000 0.000000 0.000000
vn 1.000000 0.000000 0.000000
vn 0.676960 0.736020 0.000000
vn 0.676957 0.736022 0.000000
vn -1.000000 0.000000 0.000000
vn -1.000000 0.000000 0.000000
vn -1.000000 0.000000 0.000000
vn -1.000000 0.000000 0.000000
vn 0.000000 1.000000 0.000000
vn 0.000000 1.000000 0.000000
vn 0.000000 1.000000 0.000000
vn 0.000000 1.000000 0.000000
vn -0.507985 -0.861366 0.000000
vn -0.507987 -0.861365 0.000000
vn -0.814897 -0.579607 0.000000
vn -0.814899 -0.579603 0.000000
vn -0.979028 -0.203728 0.000000
vn -0.979028 -0.203728 0.000000
vn -0.106743 -0.994287 0.000000
vn -0.106743 -0.994287 0.000000
vn -0.979028 0.203728 0.000000
vn -0.979028 0.203728 0.000000
vn 1.000000 0.000000 0.000000
vn 1.000000 0.000000 0.000000
vn 1.000000 0.000000 0.000000
vn 1.000000 0.000000 0.000000
vn 0.314990 -0.949095 0.000000
vn 0.314992 -0.949094 0.000000
vn -0.814901 0.579600 0.000000
vn -0.814898 0.579604 0.000000
vn 0.676957 -0.736022 0.000000
vn 0.676959 -0.736021 0.000000
vn 1.000000 0.000000 0.000000
vn 1.000000 0.000000 0.000000
vn 1.000000 0.000000 0.000000
vn 1.000000 0.000000 0.000000
vn -0.507987 0.861365 0.000000
vn -0.507985 0.861366 0.000000
vn 0.916733 -0.399500 0.000000
vn 0.916733 -0.399500 0.000000
vn 0.000000 1.000000 0.000000
vn 0.000000 1.000000 0.000000
vn 0.000000 1.000000 0.000000
vn 0.000000 1.000000 0.000000
vn -0.106738 0.994287 0.000000
vn -0.106737 0.994287 0.000000
vn 1.000000 0.000000 0.000000
vn 1.000000 0.000000 0.000000
vn 0.314992 0.949094 0.000000
vn 0.314990 0.949095 0.000000
vn 0.916732 0.399503 0.000000
vn 0.916732 0.399503 0.000000
vn 0.676959 0.736021 0.000000
vn 0.676958 0.736022 0.000000
vn 0.000000 1.000000 0.000000
vn 0.000000 1.000000 0.000000
vn 0.000000 1.000000 0.000000
vn 0.000000 1.000000 0.000000
vn 0.000000 0.000000 -1.000000
vn 0.000000 0.000000 -1.000000
vn 0.000000 0.000000 -1.000000
vn 0.000000 0.000000 -1.000000
vn -0.000000 0.000000 -1.000000
vn -0.000000 0.000000 -1.000000
vn -0.000000 0.000000 -1.000000
vn 0.000000 0.000000 -1.000000
vn 0.000000 0.000000 1.000000
vn 0.000000 0.000000 1.000000
vn 0.000000 0.000000 1.000000
vn 0.000000 0.000000 1.000000
vn -0.000000 0.000000 1.000000
vn -0.000000 0.000000 1.000000
vn -0.000000 0.000000 1.000000
vn 0.000000 0.000000 1.000000
vn 0.000000 0.000000 -1.000000
vn 0.000000 0.000000 -1.000000
vn 0.000000 0.000000 -1.000000
vn 0.000000 0.000000 -1.000000
vn 0.000001 0.000000 -1.000000
vn 0.000000 0.000000 -1.000000
vn 0.000000 0.000000 -1.000000
vn 0.000001 0.000000 -1.000000
vn 0.000000 0.000000 -1.000000
vn 0.000000 0.000000 -1.000000
vn 0.000000 0.000000 -1.000000
vn 0.000000 0.000000 -1.000000
vn -0.000000 0.000000 -1.000000
vn -0.000000 0.000000 -1.000000
vn -0.000001 0.000000 -1.000000
vn 0.000000 0.000000 -1.000000
vn 0.000000 0.000000 -1.000000
vn 0.000000 0.000000 -1.000000
vn 0.000000 0.000000 -1.000000
vn -0.000001 0.000000 1.000000
vn -0.000000 0.000000 1.000000
vn -0.000000 0.000000 1.000000
vn 0.000000 0.000000 1.000000
vn 0.000000 0.000000 1.000000
vn -0.000000 0.000000 1.000000
vn 0.000000 0.000000 1.000000
vn 0.000000 0.000000 1.000000
vn -0.000000 0.000000 1.000000
vn -0.000002 0.000000 1.000000
vn -0.000000 0.000000 1.000000
vn 0.000000 0.000000 1.000000
vn 0.000000 0.000000 1.000000
vn -0.000000 0.000000 1.000000
vn 0.000000 0.000000 1.000000
vn -0.000000 0.000000 1.000000
vn 0.000000 0.000000 1.000000
vn -0.000000 0.000000 1.000000
vn 0.000002 0.000000 1.000000
s 1
g pCube234
usemtl lambert28SG
f 1/1/1 2/2/2 3/3/3
f 2/2/2 4/4/4 3/3/3
f 5/5/5 1/1/1 3/3/3
f 4/4/4 6/6/6 3/3/3
f 7/7/7 5/5/5 3/3/3
f 6/6/6 8/8/8 3/3/3
f 9/9/9 7/7/7 3/3/3
f 8/8/8 10/10/10 3/3/3
f 11/11/11 9/9/9 3/3/3
f 10/10/10 12/12/12 3/3/3
f 13/13/13 11/11/11 3/3/3
f 12/12/12 14/14/14 3/3/3
f 15/15/15 13/13/13 3/3/3
f 14/14/14 16/16/16 3/3/3
f 16/16/16 15/15/15 3/3/3
s 2
f 17/17/17 18/18/18 19/19/19
f 20/20/20 17/17/17 19/19/19
f 18/18/18 21/21/21 19/19/19
f 22/22/22 20/20/20 19/19/19
f 21/21/21 23/23/23 19/19/19
f 24/24/24 22/22/22 19/19/19
f 23/23/23 25/25/25 19/19/19
f 26/26/26 24/24/24 19/19/19
f 25/25/25 27/27/27 19/19/19
f 28/28/28 26/26/26 19/19/19
f 27/27/27 29/29/29 19/19/19
f 30/30/30 28/28/28 19/19/19
f 29/29/29 31/31/31 19/19/19
f 32/32/32 30/30/30 19/19/19
f 31/31/31 32/32/32 19/19/19
s 3
usemtl lambert22SG
f 33/33/33 34/34/34 36/36/35
f 36/36/35 34/34/34 35/35/36
s 4
f 37/37/37 38/38/38 33/33/39
f 33/33/39 38/38/38 34/34/40
s 5
usemtl lambert28SG
f 39/39/41 40/40/42 42/42/43
f 42/42/43 40/40/42 41/41/44
s 6
f 39/43/45 42/44/46 44/46/47
f 44/46/47 42/44/46 43/45/48
s 7
f 2/47/49 1/48/50 46/50/51
f 46/50/51 1/48/50 45/49/52
f 4/51/53 2/47/49 47/52/54
f 47/52/54 2/47/49 46/50/51
f 1/48/50 5/53/55 45/49/52
f 45/49/52 5/53/55 48/54/56
f 6/55/57 4/51/53 49/56/58
f 49/56/58 4/51/53 47/52/54
f 5/53/55 7/57/59 48/54/56
f 48/54/56 7/57/59 50/58/60
f 8/59/61 6/55/57 51/60/62
f 51/60/62 6/55/57 49/56/58
f 7/57/59 9/61/63 50/58/60
f 50/58/60 9/61/63 52/62/64
f 10/63/65 8/59/61 53/64/66
f 53/64/66 8/59/61 51/60/62
f 9/61/63 11/65/67 52/62/64
f 52/62/64 11/65/67 54/66/68
f 12/67/69 10/63/65 55/68/70
f 55/68/70 10/63/65 53/64/66
f 11/65/67 13/69/71 54/66/68
f 54/66/68 13/69/71 56/70/72
f 14/71/73 12/67/69 57/72/74
f 57/72/74 12/67/69 55/68/70
s 8
f 58/73/75 59/74/76 61/76/77
f 61/76/77 59/74/76 60/75/78
s 7
f 13/69/71 15/77/79 56/70/72
f 56/70/72 15/77/79 62/78/80
s 9
f 41/79/81 40/80/82 64/82/83
f 64/82/83 40/80/82 63/81/84
s 7
f 16/83/85 14/71/73 65/84/86
f 65/84/86 14/71/73 57/72/74
f 15/85/79 16/83/85 62/86/80
f 62/86/80 16/83/85 65/84/86
s 10
f 61/87/87 60/88/88 67/90/89
f 67/90/89 60/88/88 66/89/90
s 11
f 64/91/91 63/92/92 43/94/93
f 43/94/93 63/92/92 44/93/94
s 12
f 68/95/95 18/96/96 69/98/97
f 69/98/97 18/96/96 17/97/98
f 69/98/97 17/97/98 70/100/99
f 70/100/99 17/97/98 20/99/100
f 71/101/101 21/102/102 68/95/95
f 68/95/95 21/102/102 18/96/96
f 70/100/99 20/99/100 72/104/103
f 72/104/103 20/99/100 22/103/104
s 14
usemtl lambert22SG
f 36/105/105 35/106/106 74/108/107
f 74/108/107 35/106/106 73/107/108
s 12
usemtl lambert28SG
f 75/109/109 23/110/110 71/101/101
f 71/101/101 23/110/110 21/102/102
f 72/104/103 22/103/104 76/112/111
f 76/112/111 22/103/104 24/111/112
f 77/113/113 25/114/114 75/109/109
f 75/109/109 25/114/114 23/110/110
s 17
f 59/115/115 58/116/116 79/118/117
f 79/118/117 58/116/116 78/117/118
s 12
f 76/112/111 24/111/112 80/120/119
f 80/120/119 24/111/112 26/119/120
f 81/121/121 27/122/122 77/113/113
f 77/113/113 27/122/122 25/114/114
s 19
f 66/89/123 79/118/124 67/124/125
f 67/124/125 79/118/124 78/123/126
s 12
f 80/120/119 26/119/120 82/126/127
f 82/126/127 26/119/120 28/125/128
f 83/127/129 29/128/130 81/121/121
f 81/121/121 29/128/130 27/122/122
f 82/126/127 28/125/128 84/130/131
f 84/130/131 28/125/128 30/129/132
f 85/131/133 31/132/134 83/127/129
f 83/127/129 31/132/134 29/128/130
f 84/130/131 30/129/132 86/134/135
f 86/134/135 30/129/132 32/133/136
f 86/134/135 32/133/136 85/136/133
f 85/136/133 32/133/136 31/135/134
s 22
usemtl lambert22SG
f 74/108/137 73/107/138 37/37/139
f 37/37/139 73/107/138 38/38/140
s 23
f 35/137/141 41/145/142 73/140/143
f 41/145/142 64/146/144 73/140/143
f 35/137/141 34/138/145 41/145/142
f 41/145/142 34/138/145 42/182/146
f 34/138/145 38/139/147 42/182/146
f 42/182/146 38/139/147 43/181/148
f 73/140/143 64/146/144 38/139/147
f 64/146/144 43/181/148 38/139/147
s 24
f 74/179/149 78/147/150 36/180/151
f 78/147/150 58/148/152 36/180/151
f 74/179/149 37/144/153 78/147/150
f 78/147/150 37/144/153 67/143/154
f 37/144/153 33/141/155 67/143/154
f 67/143/154 33/141/155 61/142/156
f 36/180/151 58/148/152 33/141/155
f 58/148/152 61/142/156 33/141/155
s 25
usemtl lambert28SG
f 46/155/157 45/156/158 39/39/159
f 39/39/159 45/156/158 40/40/160
f 45/156/158 48/157/161 40/40/160
f 48/157/161 50/166/162 40/40/160
f 50/166/162 52/167/163 40/40/160
f 52/167/163 54/168/164 40/40/160
f 40/40/160 54/168/164 63/92/165
f 54/168/164 56/169/166 63/92/165
f 56/169/166 62/170/167 63/92/165
f 62/170/167 65/171/168 63/92/165
f 65/171/168 57/149/169 63/92/165
f 63/92/165 57/149/169 44/93/170
f 57/149/169 55/150/171 44/93/170
f 55/150/171 53/151/172 44/93/170
f 53/151/172 51/152/173 44/93/170
f 51/152/173 49/153/174 44/93/170
f 44/93/170 49/153/174 39/39/159
f 49/153/174 47/154/175 39/39/159
f 47/154/175 46/155/157 39/39/159
s 26
f 69/173/176 60/88/177 68/172/178
f 60/88/177 59/115/179 68/172/178
f 68/172/178 59/115/179 71/165/180
f 71/165/180 59/115/179 75/164/181
f 75/164/181 59/115/179 77/163/182
f 77/163/182 59/115/179 81/162/183
f 59/115/179 79/118/184 81/162/183
f 81/162/183 79/118/184 83/161/185
f 83/161/185 79/118/184 85/160/186
f 85/160/186 79/118/184 86/159/187
f 86/159/187 79/118/184 84/158/188
f 79/118/184 66/89/189 84/158/188
f 84/158/188 66/89/189 82/178/190
f 82/178/190 66/89/189 80/177/191
f 80/177/191 66/89/189 76/176/192
f 76/176/192 66/89/189 72/175/193
f 66/89/189 60/88/177 72/175/193
f 72/175/193 60/88/177 70/174/194
f 60/88/177 69/173/176 70/174/194
