# This file uses centimeters as units for non-parametric coordinates.

mtllib puertaCuarto.mtl
g default
v 0.151953 0.024629 0.984078
v 0.151953 0.038587 0.968921
v 0.151953 0.068074 1.008604
v 0.151953 0.057644 0.960625
v 0.151953 0.018183 1.003477
v 0.151953 0.078504 0.960625
v 0.151953 0.020364 1.023761
v 0.151953 0.097560 0.968921
v 0.151953 0.030794 1.041425
v 0.151953 0.111518 0.984078
v 0.151953 0.047670 1.053413
v 0.151953 0.117964 1.003477
v 0.151953 0.068074 1.057654
v 0.151953 0.115784 1.023761
v 0.151953 0.088478 1.053413
v 0.151953 0.105354 1.041425
v -0.151057 0.038587 0.968921
v -0.151057 0.024629 0.984078
v -0.151057 0.068074 1.008604
v -0.151057 0.057644 0.960625
v -0.151057 0.018183 1.003477
v -0.151057 0.078504 0.960625
v -0.151057 0.020364 1.023761
v -0.151057 0.097560 0.968921
v -0.151057 0.030794 1.041425
v -0.151057 0.111518 0.984078
v -0.151057 0.047670 1.053413
v -0.151057 0.117964 1.003477
v -0.151057 0.068074 1.057654
v -0.151057 0.115784 1.023761
v -0.151057 0.088478 1.053413
v -0.151057 0.105354 1.041425
v -0.072359 -1.575587 -0.082099
v 0.077404 -1.575587 -0.082099
v 0.077404 -1.575587 1.150084
v -0.072359 -1.575587 1.150084
v -0.072359 1.578894 -0.082099
v 0.077404 1.578894 -0.082099
v 0.077404 0.024629 0.984078
v 0.077404 0.038587 0.968921
v 0.077404 0.057644 0.960625
v 0.077404 0.018183 1.003477
v 0.077404 0.078504 0.960625
v 0.077404 0.020364 1.023761
v 0.077404 0.097560 0.968921
v 0.077404 0.030794 1.041425
v 0.077404 0.111518 0.984078
v 0.077404 0.047670 1.053413
v 0.077404 0.117964 1.003477
v 0.077404 0.068074 1.057654
v 0.077404 0.115784 1.023761
v 0.077404 0.088478 1.053413
v 0.077404 0.105354 1.041425
v -0.072359 0.024629 0.984078
v -0.072359 0.038587 0.968921
v -0.072359 0.057644 0.960625
v -0.072359 0.018183 1.003477
v -0.072359 0.078504 0.960625
v -0.072359 0.020364 1.023761
v 0.077404 1.578894 1.150084
v -0.072359 1.578894 1.150084
v -0.072359 0.097560 0.968921
v -0.072359 0.030794 1.041425
v -0.072359 0.111518 0.984078
v -0.072359 0.047670 1.053413
v -0.072359 0.117964 1.003477
v -0.072359 0.068074 1.057654
v -0.072359 0.115784 1.023761
v -0.072359 0.088478 1.053413
v -0.072359 0.105354 1.041425
vt 0.189549 0.349318
vt 0.131733 0.297261
vt 0.283096 0.179806
vt 0.100090 0.226189
vt 0.263539 0.373359
vt 0.100090 0.148391
vt 0.340911 0.365227
vt 0.131733 0.077318
vt 0.408286 0.326328
vt 0.189549 0.025261
vt 0.454015 0.263388
vt 0.263539 0.001220
vt 0.470190 0.187290
vt 0.340911 0.009352
vt 0.454015 0.111192
vt 0.408286 0.048252
vt 0.131733 0.687768
vt 0.189549 0.635711
vt 0.283096 0.790256
vt 0.100090 0.758841
vt 0.263539 0.611670
vt 0.100090 0.836639
vt 0.340911 0.619803
vt 0.131733 0.907711
vt 0.408286 0.658702
vt 0.189549 0.959768
vt 0.454015 0.721642
vt 0.263539 0.983809
vt 0.470190 0.797740
vt 0.340911 0.975677
vt 0.454015 0.873838
vt 0.408286 0.936778
vt 0.190161 0.780947
vt 0.363915 0.780947
vt 0.363915 0.954701
vt 0.190161 0.954701
vt 0.190161 0.607193
vt 0.363915 0.607193
vt 0.293074 0.374384
vt 0.313031 0.374384
vt 0.313031 0.485135
vt 0.293074 0.485135
vt 0.273118 0.374384
vt 0.273118 0.485135
vt 0.332988 0.374384
vt 0.332988 0.485135
vt 0.253161 0.374384
vt 0.253161 0.485135
vt 0.352944 0.374384
vt 0.352944 0.485135
vt 0.233204 0.374384
vt 0.233204 0.485135
vt 0.372901 0.374384
vt 0.372901 0.485135
vt 0.213247 0.374384
vt 0.213247 0.485135
vt 0.392858 0.374384
vt 0.392858 0.485135
vt 0.193291 0.374384
vt 0.193291 0.485135
vt 0.412815 0.374384
vt 0.412815 0.485135
vt 0.173334 0.374384
vt 0.173334 0.485135
vt 0.432771 0.374384
vt 0.432771 0.485135
vt 0.153377 0.374384
vt 0.153377 0.485135
vt 0.133420 0.374384
vt 0.133420 0.485135
vt 0.313031 0.494857
vt 0.313031 0.611771
vt 0.293074 0.611771
vt 0.293074 0.494857
vt 0.273118 0.611771
vt 0.273118 0.494857
vt 0.332988 0.494857
vt 0.332988 0.611771
vt 0.253161 0.611771
vt 0.253161 0.494857
vt 0.352944 0.494857
vt 0.352944 0.611771
vt 0.190161 0.259686
vt 0.577627 0.001057
vt 0.577627 0.992210
vt 0.190161 0.433440
vt 0.233204 0.611771
vt 0.233204 0.494857
vt 0.372901 0.494857
vt 0.372901 0.611771
vt 0.213247 0.611771
vt 0.213247 0.494857
vt 0.392858 0.494857
vt 0.392858 0.611771
vt 0.193291 0.611771
vt 0.193291 0.494857
vt 0.412815 0.494857
vt 0.412815 0.611771
vt 0.173334 0.611771
vt 0.173334 0.494857
vt 0.432771 0.494857
vt 0.432771 0.611771
vt 0.153377 0.611771
vt 0.153377 0.494857
vt 0.133420 0.611771
vt 0.133420 0.494857
vt 0.625500 0.501827
vt 0.618876 0.502512
vt 0.613108 0.505789
vt 0.609193 0.511092
vt 0.607809 0.517503
vt 0.609193 0.523914
vt 0.613108 0.529216
vt 0.618876 0.532493
vt 0.625500 0.533179
vt 0.931288 0.532214
vt 0.937793 0.531547
vt 0.943457 0.528356
vt 0.947301 0.523194
vt 0.948661 0.516952
vt 0.947301 0.510710
vt 0.943457 0.505548
vt 0.937793 0.502357
vt 0.931288 0.501690
vt 0.631834 0.531153
vt 0.636783 0.526768
vt 0.639492 0.520780
vt 0.639492 0.514226
vt 0.636783 0.508238
vt 0.631834 0.503852
vt 0.979979 0.001057
vt 0.979979 0.992210
vt 0.583192 0.014142
vt 0.925068 0.503662
vt 0.920208 0.507932
vt 0.917548 0.513761
vt 0.917548 0.520142
vt 0.920208 0.525972
vt 0.925068 0.530242
vt 0.583192 0.979124
vt 0.363915 0.433440
vt 0.363915 0.259686
vt 0.978298 0.979124
vt 0.978298 0.014142
vn 1.000000 0.000000 0.000000
vn 1.000000 0.000000 0.000000
vn 1.000000 0.000000 0.000000
vn 1.000000 0.000000 0.000000
vn 1.000000 -0.000000 0.000000
vn 1.000000 0.000000 0.000000
vn 1.000000 0.000000 0.000000
vn 1.000000 0.000000 0.000000
vn 1.000000 0.000000 0.000000
vn 1.000000 0.000000 0.000000
vn 1.000000 0.000000 0.000000
vn 1.000000 -0.000000 0.000000
vn 1.000000 0.000000 0.000000
vn 1.000000 -0.000000 0.000000
vn 1.000000 0.000000 0.000000
vn 1.000000 0.000000 0.000000
vn -1.000000 0.000000 0.000000
vn -1.000000 0.000000 0.000000
vn -1.000000 0.000000 0.000000
vn -1.000000 0.000000 0.000000
vn -1.000000 -0.000000 0.000000
vn -1.000000 0.000000 0.000000
vn -1.000000 -0.000000 0.000000
vn -1.000000 0.000000 0.000000
vn -1.000000 0.000000 0.000000
vn -1.000000 0.000000 0.000000
vn -1.000000 0.000000 0.000000
vn -1.000000 -0.000000 0.000000
vn -1.000000 0.000000 0.000000
vn -1.000000 0.000000 0.000000
vn -1.000000 0.000000 0.000000
vn -1.000000 0.000000 0.000000
vn 0.000000 -1.000000 0.000000
vn 0.000000 -1.000000 0.000000
vn 0.000000 -1.000000 0.000000
vn 0.000000 -1.000000 0.000000
vn 0.000000 0.000000 -1.000000
vn 0.000000 0.000000 -1.000000
vn 0.000000 0.000000 -1.000000
vn 0.000000 0.000000 -1.000000
vn 0.000000 -0.579134 -0.815233
vn 0.000000 -0.861090 -0.508452
vn 0.000000 -0.579134 -0.815232
vn 0.000000 -0.861090 -0.508452
vn 0.000000 -0.203487 -0.979078
vn 0.000000 -0.203487 -0.979078
vn 0.000000 -0.994272 -0.106875
vn 0.000000 -0.994273 -0.106875
vn 0.000000 0.203487 -0.979078
vn 0.000000 0.203487 -0.979078
vn 0.000000 -0.948975 0.315351
vn 0.000000 -0.948975 0.315351
vn 0.000000 0.579134 -0.815233
vn 0.000000 0.579134 -0.815232
vn 0.000000 -0.735611 0.677404
vn 0.000000 -0.735611 0.677404
vn 0.000000 0.861090 -0.508452
vn 0.000000 0.861091 -0.508451
vn 0.000000 -0.399148 0.916886
vn 0.000000 -0.399148 0.916886
vn 0.000000 0.994272 -0.106875
vn 0.000000 0.994273 -0.106875
vn 0.000000 0.000000 1.000000
vn 0.000000 0.000000 1.000000
vn 0.000000 0.948975 0.315352
vn 0.000000 0.948975 0.315351
vn 0.000000 0.399148 0.916886
vn 0.000000 0.399149 0.916886
vn 0.000000 0.735611 0.677404
vn 0.000000 0.735611 0.677404
vn 0.000000 -0.861090 -0.508452
vn 0.000000 -0.861090 -0.508452
vn 0.000000 -0.579134 -0.815232
vn 0.000000 -0.579134 -0.815232
vn 0.000000 -0.203487 -0.979078
vn 0.000000 -0.203487 -0.979078
vn 0.000000 -0.994273 -0.106875
vn 0.000000 -0.994272 -0.106875
vn 0.000000 0.203487 -0.979078
vn 0.000000 0.203487 -0.979078
vn 0.000000 -0.948975 0.315351
vn 0.000000 -0.948975 0.315351
vn 0.000000 0.000000 1.000000
vn 0.000000 0.000000 1.000000
vn 0.000000 0.000000 1.000000
vn 0.000000 0.000000 1.000000
vn 0.000000 0.579134 -0.815232
vn 0.000000 0.579134 -0.815232
vn 0.000000 -0.735611 0.677404
vn 0.000000 -0.735611 0.677404
vn 0.000000 0.861091 -0.508452
vn 0.000000 0.861090 -0.508452
vn 0.000000 -0.399148 0.916886
vn 0.000000 -0.399149 0.916886
vn 0.000000 0.994273 -0.106875
vn 0.000000 0.994272 -0.106876
vn 0.000000 -0.000000 1.000000
vn 0.000000 -0.000000 1.000000
vn 0.000000 0.948975 0.315351
vn 0.000000 0.948975 0.315351
vn 0.000000 0.399149 0.916886
vn 0.000000 0.399148 0.916886
vn 0.000000 0.735611 0.677404
vn 0.000000 0.735611 0.677405
vn 0.000000 1.000000 0.000000
vn 0.000000 1.000000 0.000000
vn 0.000000 1.000000 0.000000
vn 0.000000 1.000000 0.000000
vn 1.000000 -0.000000 0.000000
vn 1.000000 0.000000 0.000000
vn 1.000000 -0.000000 0.000000
vn 1.000000 -0.000000 0.000000
vn 1.000000 0.000000 0.000000
vn 1.000000 -0.000000 0.000000
vn 1.000000 0.000000 0.000000
vn 1.000000 0.000000 0.000000
vn 1.000000 0.000000 0.000000
vn 1.000000 0.000000 0.000000
vn 1.000000 0.000000 0.000000
vn 1.000000 -0.000000 0.000000
vn 1.000000 0.000000 0.000000
vn 1.000000 -0.000000 0.000000
vn 1.000000 0.000000 0.000000
vn 1.000000 -0.000000 0.000000
vn 1.000000 0.000000 0.000000
vn 1.000000 -0.000000 0.000000
vn 1.000000 0.000000 0.000000
vn -1.000000 0.000000 0.000000
vn -1.000000 0.000000 0.000000
vn -1.000000 0.000000 0.000000
vn -1.000000 0.000000 0.000000
vn -1.000000 0.000000 0.000000
vn -1.000000 -0.000000 0.000000
vn -1.000000 -0.000000 0.000000
vn -1.000000 0.000000 0.000000
vn -1.000000 0.000000 0.000000
vn -1.000000 0.000000 0.000000
vn -1.000000 0.000000 0.000000
vn -1.000000 -0.000000 0.000000
vn -1.000000 -0.000000 0.000000
vn -1.000000 0.000000 0.000000
vn -1.000000 -0.000000 0.000000
vn -1.000000 0.000000 0.000000
vn -1.000000 0.000000 0.000000
vn -1.000000 0.000000 0.000000
vn -1.000000 0.000000 0.000000
s 1
g pCube236
usemtl lambert28SG
f 1/1/1 2/2/2 3/3/3
f 2/2/2 4/4/4 3/3/3
f 5/5/5 1/1/1 3/3/3
f 4/4/4 6/6/6 3/3/3
f 7/7/7 5/5/5 3/3/3
f 6/6/6 8/8/8 3/3/3
f 9/9/9 7/7/7 3/3/3
f 8/8/8 10/10/10 3/3/3
f 11/11/11 9/9/9 3/3/3
f 10/10/10 12/12/12 3/3/3
f 13/13/13 11/11/11 3/3/3
f 12/12/12 14/14/14 3/3/3
f 15/15/15 13/13/13 3/3/3
f 14/14/14 16/16/16 3/3/3
f 16/16/16 15/15/15 3/3/3
s 2
f 17/17/17 18/18/18 19/19/19
f 20/20/20 17/17/17 19/19/19
f 18/18/18 21/21/21 19/19/19
f 22/22/22 20/20/20 19/19/19
f 21/21/21 23/23/23 19/19/19
f 24/24/24 22/22/22 19/19/19
f 23/23/23 25/25/25 19/19/19
f 26/26/26 24/24/24 19/19/19
f 25/25/25 27/27/27 19/19/19
f 28/28/28 26/26/26 19/19/19
f 27/27/27 29/29/29 19/19/19
f 30/30/30 28/28/28 19/19/19
f 29/29/29 31/31/31 19/19/19
f 32/32/32 30/30/30 19/19/19
f 31/31/31 32/32/32 19/19/19
s 3
usemtl lambert23SG
f 33/33/33 34/34/34 36/36/35
f 36/36/35 34/34/34 35/35/36
s 4
f 37/37/37 38/38/38 33/33/39
f 33/33/39 38/38/38 34/34/40
s 5
usemtl lambert28SG
f 2/39/41 1/40/42 40/42/43
f 40/42/43 1/40/42 39/41/44
f 4/43/45 2/39/41 41/44/46
f 41/44/46 2/39/41 40/42/43
f 1/40/42 5/45/47 39/41/44
f 39/41/44 5/45/47 42/46/48
f 6/47/49 4/43/45 43/48/50
f 43/48/50 4/43/45 41/44/46
f 5/45/47 7/49/51 42/46/48
f 42/46/48 7/49/51 44/50/52
f 8/51/53 6/47/49 45/52/54
f 45/52/54 6/47/49 43/48/50
f 7/49/51 9/53/55 44/50/52
f 44/50/52 9/53/55 46/54/56
f 10/55/57 8/51/53 47/56/58
f 47/56/58 8/51/53 45/52/54
f 9/53/55 11/57/59 46/54/56
f 46/54/56 11/57/59 48/58/60
f 12/59/61 10/55/57 49/60/62
f 49/60/62 10/55/57 47/56/58
f 11/57/59 13/61/63 48/58/60
f 48/58/60 13/61/63 50/62/64
f 14/63/65 12/59/61 51/64/66
f 51/64/66 12/59/61 49/60/62
f 13/61/63 15/65/67 50/62/64
f 50/62/64 15/65/67 52/66/68
f 16/67/69 14/63/65 53/68/70
f 53/68/70 14/63/65 51/64/66
f 15/69/67 16/67/69 52/70/68
f 52/70/68 16/67/69 53/68/70
s 6
f 54/71/71 18/72/72 55/74/73
f 55/74/73 18/72/72 17/73/74
f 55/74/73 17/73/74 56/76/75
f 56/76/75 17/73/74 20/75/76
f 57/77/77 21/78/78 54/71/71
f 54/71/71 21/78/78 18/72/72
f 56/76/75 20/75/76 58/80/79
f 58/80/79 20/75/76 22/79/80
f 59/81/81 23/82/82 57/77/77
f 57/77/77 23/82/82 21/78/78
s 9
usemtl lambert23SG
f 36/83/83 35/142/84 61/86/85
f 61/86/85 35/142/84 60/141/86
s 6
usemtl lambert28SG
f 58/80/79 22/79/80 62/88/87
f 62/88/87 22/79/80 24/87/88
f 63/89/89 25/90/90 59/81/81
f 59/81/81 25/90/90 23/82/82
f 62/88/87 24/87/88 64/92/91
f 64/92/91 24/87/88 26/91/92
f 65/93/93 27/94/94 63/89/89
f 63/89/89 27/94/94 25/90/90
f 64/92/91 26/91/92 66/96/95
f 66/96/95 26/91/92 28/95/96
f 67/97/97 29/98/98 65/93/93
f 65/93/93 29/98/98 27/94/94
f 66/96/95 28/95/96 68/100/99
f 68/100/99 28/95/96 30/99/100
f 69/101/101 31/102/102 67/97/97
f 67/97/97 31/102/102 29/98/98
f 68/100/99 30/99/100 70/104/103
f 70/104/103 30/99/100 32/103/104
f 70/104/103 32/103/104 69/106/101
f 69/106/101 32/103/104 31/105/102
s 14
usemtl lambert23SG
f 61/86/105 60/141/106 37/37/107
f 37/37/107 60/141/106 38/38/108
s 15
f 52/112/109 53/113/110 60/85/111
f 53/113/110 51/114/112 60/85/111
f 60/85/111 51/114/112 38/132/113
f 51/114/112 49/115/114 38/132/113
f 49/115/114 47/125/115 38/132/113
f 34/131/116 38/132/113 35/84/117
f 47/125/115 45/126/118 38/132/113
f 45/126/118 43/127/119 38/132/113
f 52/112/109 60/85/111 50/111/120
f 60/85/111 35/84/117 50/111/120
f 50/111/120 35/84/117 48/110/121
f 48/110/121 35/84/117 46/109/122
f 46/109/122 35/84/117 44/108/123
f 44/108/123 35/84/117 42/107/124
f 42/107/124 35/84/117 39/130/125
f 39/130/125 35/84/117 40/129/126
f 43/127/119 41/128/127 38/132/113
f 38/132/113 41/128/127 35/84/117
f 41/128/127 40/129/126 35/84/117
s 17
f 65/121/128 63/122/129 36/144/130
f 63/122/129 59/123/131 36/144/130
f 36/144/130 59/123/131 33/133/132
f 59/123/131 57/124/133 33/133/132
f 57/124/133 54/134/134 33/133/132
f 37/140/135 33/133/132 61/143/136
f 54/134/134 55/135/137 33/133/132
f 55/135/137 56/136/138 33/133/132
f 65/121/128 36/144/130 67/120/139
f 36/144/130 61/143/136 67/120/139
f 67/120/139 61/143/136 69/119/140
f 69/119/140 61/143/136 70/118/141
f 70/118/141 61/143/136 68/117/142
f 68/117/142 61/143/136 66/116/143
f 66/116/143 61/143/136 64/139/144
f 64/139/144 61/143/136 62/138/145
f 56/136/138 58/137/146 33/133/132
f 33/133/132 58/137/146 61/143/136
f 58/137/146 62/138/145 61/143/136
