# This file uses centimeters as units for non-parametric coordinates.

mtllib ventanas.mtl
g default
v 2.528558 1.985067 9.930099
v 2.913516 1.985067 9.930099
v 2.913516 1.985067 10.093437
v 2.528558 1.985067 10.093437
v 2.528558 3.583988 9.930099
v 2.528558 3.583988 10.093437
v 2.913516 3.583988 9.930099
v 2.913516 3.583988 10.093437
v 2.994531 1.985067 9.930099
v 4.096519 1.985067 9.930099
v 4.096519 1.985067 10.093437
v 2.994531 1.985067 10.093437
v 2.994531 3.583988 9.930099
v 2.994531 3.583988 10.093437
v 4.096519 3.583988 9.930099
v 4.096519 3.583988 10.093437
v 4.184528 1.985067 9.930099
v 4.569486 1.985067 9.930099
v 4.569486 1.985067 10.093437
v 4.184528 1.985067 10.093437
v 4.184528 3.583988 9.930099
v 4.184528 3.583988 10.093437
v 4.569486 3.583988 9.930099
v 4.569486 3.583988 10.093437
vt 0.375000 0.852449
vt 0.625000 0.852449
vt 0.625000 0.897870
vt 0.375000 0.897870
vt 0.227449 0.250000
vt 0.227449 0.000000
vt 0.272870 0.000000
vt 0.272870 0.250000
vt 0.941737 0.902787
vt 0.771924 0.902787
vt 0.771924 0.056407
vt 0.941737 0.056407
vt 0.018957 0.968239
vt 0.018957 0.104437
vt 0.192266 0.104437
vt 0.192266 0.968239
vt 0.727130 0.250000
vt 0.727130 0.000000
vt 0.772551 0.000000
vt 0.772551 0.250000
vt 0.375000 0.352130
vt 0.625000 0.352130
vt 0.625000 0.397551
vt 0.375000 0.397551
vt 0.375000 0.852449
vt 0.625000 0.852449
vt 0.625000 0.897870
vt 0.375000 0.897870
vt 0.227449 0.250000
vt 0.227449 0.000000
vt 0.272870 0.000000
vt 0.272870 0.250000
vt 0.250078 0.902787
vt 0.250078 0.056407
vt 0.736187 0.056407
vt 0.736187 0.902787
vt 0.724854 0.104437
vt 0.724854 0.968239
vt 0.228739 0.968239
vt 0.228739 0.104437
vt 0.727130 0.250000
vt 0.727130 0.000000
vt 0.772551 0.000000
vt 0.772551 0.250000
vt 0.375000 0.352130
vt 0.625000 0.352130
vt 0.625000 0.397551
vt 0.375000 0.397551
vt 0.375000 0.852449
vt 0.625000 0.852449
vt 0.625000 0.897870
vt 0.375000 0.897870
vt 0.227449 0.250000
vt 0.227449 0.000000
vt 0.272870 0.000000
vt 0.272870 0.250000
vt 0.041442 0.056407
vt 0.211254 0.056407
vt 0.211254 0.902787
vt 0.041442 0.902787
vt 0.764476 0.104437
vt 0.937784 0.104437
vt 0.937785 0.968239
vt 0.764476 0.968239
vt 0.727130 0.250000
vt 0.727130 0.000000
vt 0.772551 0.000000
vt 0.772551 0.250000
vt 0.375000 0.352130
vt 0.625000 0.352130
vt 0.625000 0.397551
vt 0.375000 0.397551
vn 0.000000 -1.000000 0.000000
vn 0.000000 -1.000000 0.000000
vn 0.000000 -1.000000 0.000000
vn 0.000000 -1.000000 0.000000
vn -1.000000 0.000000 0.000000
vn -1.000000 0.000000 0.000000
vn -1.000000 0.000000 0.000000
vn -1.000000 0.000000 0.000000
vn 0.000000 0.000000 -1.000000
vn 0.000000 0.000000 -1.000000
vn 0.000000 0.000000 -1.000000
vn 0.000000 0.000000 -1.000000
vn 0.000000 0.000000 1.000000
vn 0.000000 0.000000 1.000000
vn 0.000000 0.000000 1.000000
vn 0.000000 0.000000 1.000000
vn 1.000000 0.000000 0.000000
vn 1.000000 0.000000 0.000000
vn 1.000000 0.000000 0.000000
vn 1.000000 0.000000 0.000000
vn 0.000000 1.000000 0.000000
vn 0.000000 1.000000 0.000000
vn 0.000000 1.000000 0.000000
vn 0.000000 1.000000 0.000000
vn 0.000000 -1.000000 0.000000
vn 0.000000 -1.000000 0.000000
vn 0.000000 -1.000000 0.000000
vn 0.000000 -1.000000 0.000000
vn -1.000000 0.000000 0.000000
vn -1.000000 0.000000 0.000000
vn -1.000000 0.000000 0.000000
vn -1.000000 0.000000 0.000000
vn 0.000000 0.000000 -1.000000
vn 0.000000 0.000000 -1.000000
vn 0.000000 0.000000 -1.000000
vn 0.000000 0.000000 -1.000000
vn 0.000000 0.000000 1.000000
vn 0.000000 0.000000 1.000000
vn 0.000000 0.000000 1.000000
vn 0.000000 0.000000 1.000000
vn 1.000000 0.000000 0.000000
vn 1.000000 0.000000 0.000000
vn 1.000000 0.000000 0.000000
vn 1.000000 0.000000 0.000000
vn 0.000000 1.000000 0.000000
vn 0.000000 1.000000 0.000000
vn 0.000000 1.000000 0.000000
vn 0.000000 1.000000 0.000000
vn 0.000000 -1.000000 0.000000
vn 0.000000 -1.000000 0.000000
vn 0.000000 -1.000000 0.000000
vn 0.000000 -1.000000 0.000000
vn -1.000000 0.000000 0.000000
vn -1.000000 0.000000 0.000000
vn -1.000000 0.000000 0.000000
vn -1.000000 0.000000 0.000000
vn 0.000000 0.000000 -1.000000
vn 0.000000 0.000000 -1.000000
vn 0.000000 0.000000 -1.000000
vn 0.000000 0.000000 -1.000000
vn 0.000000 0.000000 1.000000
vn 0.000000 0.000000 1.000000
vn 0.000000 0.000000 1.000000
vn 0.000000 0.000000 1.000000
vn 1.000000 0.000000 0.000000
vn 1.000000 0.000000 0.000000
vn 1.000000 0.000000 0.000000
vn 1.000000 0.000000 0.000000
vn 0.000000 1.000000 0.000000
vn 0.000000 1.000000 0.000000
vn 0.000000 1.000000 0.000000
vn 0.000000 1.000000 0.000000
s 1
g polySurface16
usemtl lambert27SG
f 1/1/1 2/2/2 4/4/3
f 4/4/3 2/2/2 3/3/4
s 2
f 5/5/5 1/6/6 6/8/7
f 6/8/7 1/6/6 4/7/8
s 3
f 5/9/9 7/10/10 1/12/11
f 1/12/11 7/10/10 2/11/12
s 4
f 6/13/13 4/14/14 8/16/15
f 8/16/15 4/14/14 3/15/16
s 5
f 8/17/17 3/18/18 7/20/19
f 7/20/19 3/18/18 2/19/20
s 6
f 6/21/21 8/22/22 5/24/23
f 5/24/23 8/22/22 7/23/24
s 7
f 9/25/25 10/26/26 12/28/27
f 12/28/27 10/26/26 11/27/28
s 8
f 13/29/29 9/30/30 14/32/31
f 14/32/31 9/30/30 12/31/32
s 9
f 15/33/33 10/34/34 13/36/35
f 13/36/35 10/34/34 9/35/36
s 10
f 11/37/37 16/38/38 12/40/39
f 12/40/39 16/38/38 14/39/40
s 11
f 16/41/41 11/42/42 15/44/43
f 15/44/43 11/42/42 10/43/44
s 12
f 14/45/45 16/46/46 13/48/47
f 13/48/47 16/46/46 15/47/48
s 13
f 17/49/49 18/50/50 20/52/51
f 20/52/51 18/50/50 19/51/52
s 14
f 21/53/53 17/54/54 22/56/55
f 22/56/55 17/54/54 20/55/56
s 15
f 18/57/57 17/58/58 23/60/59
f 23/60/59 17/58/58 21/59/60
s 16
f 20/61/61 19/62/62 22/64/63
f 22/64/63 19/62/62 24/63/64
s 17
f 24/65/65 19/66/66 23/68/67
f 23/68/67 19/66/66 18/67/68
s 18
f 22/69/69 24/70/70 21/72/71
f 21/72/71 24/70/70 23/71/72
g default
v 6.146772 3.569268 8.356350
v 6.146772 3.569268 7.312028
v 6.002379 3.569268 7.312028
v 6.002379 3.569268 8.356350
v 6.002379 2.009747 8.356350
v 6.146772 2.009747 8.356350
v 6.146772 2.009747 7.312028
v 6.002379 2.009747 7.312028
vt 0.375000 0.310628
vt 0.625000 0.310628
vt 0.625000 0.433390
vt 0.375000 0.433390
vt 0.191610 0.250000
vt 0.191610 0.000000
vt 0.314372 0.000000
vt 0.314372 0.250000
vt 0.066084 0.953549
vt 0.066087 0.076682
vt 0.937281 0.076682
vt 0.937281 0.953549
vt 0.051570 0.972136
vt 0.051569 0.077829
vt 0.978190 0.077829
vt 0.978190 0.972136
vt 0.685628 0.250000
vt 0.685628 0.000000
vt 0.808390 0.000000
vt 0.808390 0.250000
vt 0.375000 0.816610
vt 0.625000 0.816610
vt 0.625000 0.939372
vt 0.375000 0.939372
vn 0.000000 1.000000 0.000000
vn 0.000000 1.000000 0.000000
vn 0.000000 1.000000 0.000000
vn 0.000000 1.000000 0.000000
vn 0.000000 0.000000 1.000000
vn 0.000000 0.000000 1.000000
vn 0.000000 0.000000 1.000000
vn 0.000000 0.000000 1.000000
vn 1.000000 0.000000 0.000000
vn 1.000000 0.000000 0.000000
vn 1.000000 0.000000 0.000000
vn 1.000000 0.000000 0.000000
vn -1.000000 0.000000 0.000000
vn -1.000000 0.000000 0.000000
vn -1.000000 0.000000 0.000000
vn -1.000000 0.000000 0.000000
vn 0.000000 0.000000 -1.000000
vn 0.000000 0.000000 -1.000000
vn 0.000000 0.000000 -1.000000
vn 0.000000 0.000000 -1.000000
vn 0.000000 -1.000000 0.000000
vn 0.000000 -1.000000 0.000000
vn 0.000000 -1.000000 0.000000
vn 0.000000 -1.000000 0.000000
s 1
g polySurface33 pCube206
usemtl lambert27SG
f 25/73/73 26/74/74 28/76/75
f 28/76/75 26/74/74 27/75/76
s 2
f 28/77/77 29/78/78 25/80/79
f 25/80/79 29/78/78 30/79/80
s 3
f 25/81/81 30/82/82 26/84/83
f 26/84/83 30/82/82 31/83/84
s 4
f 27/85/85 32/86/86 28/88/87
f 28/88/87 32/86/86 29/87/88
s 5
f 26/89/89 31/90/90 27/92/91
f 27/92/91 31/90/90 32/91/92
s 6
f 29/93/93 32/94/94 30/96/95
f 30/96/95 32/94/94 31/95/96
g default
v 4.262234 3.650708 -8.617653
v 2.383699 3.650708 -8.617653
v 2.383699 3.650708 -8.473260
v 4.262233 3.650708 -8.473260
v 4.262233 1.929210 -8.473260
v 4.262234 1.929210 -8.617653
v 2.383699 1.929210 -8.617653
v 2.383699 1.929210 -8.473260
vt 0.375000 0.310628
vt 0.625000 0.310628
vt 0.625000 0.433390
vt 0.375000 0.433390
vt 0.191610 0.250000
vt 0.191610 0.000000
vt 0.314372 0.000000
vt 0.314372 0.250000
vt 0.066084 0.953549
vt 0.066087 0.076682
vt 0.937281 0.076682
vt 0.937281 0.953549
vt 0.051570 0.972136
vt 0.051569 0.077829
vt 0.978190 0.077829
vt 0.978190 0.972136
vt 0.685628 0.250000
vt 0.685628 0.000000
vt 0.808390 0.000000
vt 0.808390 0.250000
vt 0.375000 0.816610
vt 0.625000 0.816610
vt 0.625000 0.939372
vt 0.375000 0.939372
vn 0.000000 1.000000 0.000002
vn 0.000000 1.000000 0.000000
vn 0.000000 1.000000 0.000002
vn 0.000000 1.000000 0.000000
vn 1.000000 0.000000 0.000007
vn 1.000000 0.000000 0.000007
vn 1.000000 0.000000 0.000007
vn 1.000000 0.000000 0.000007
vn 0.000000 0.000000 -1.000000
vn 0.000000 0.000000 -1.000000
vn 0.000000 0.000000 -1.000000
vn 0.000000 0.000000 -1.000000
vn 0.000000 0.000000 1.000000
vn 0.000000 0.000000 1.000000
vn 0.000000 0.000000 1.000000
vn 0.000000 0.000000 1.000000
vn -1.000000 0.000000 0.000000
vn -1.000000 0.000000 0.000000
vn -1.000000 0.000000 0.000000
vn -1.000000 0.000000 0.000000
vn 0.000000 -1.000000 -0.000000
vn 0.000000 -1.000000 -0.000000
vn 0.000000 -1.000000 -0.000000
vn 0.000000 -1.000000 0.000000
s 1
g pCube206 polySurface31
usemtl lambert27SG
f 33/97/97 34/98/98 36/100/99
f 36/100/99 34/98/98 35/99/100
s 2
f 36/101/101 37/102/102 33/104/103
f 33/104/103 37/102/102 38/103/104
s 3
f 33/105/105 38/106/106 34/108/107
f 34/108/107 38/106/106 39/107/108
s 4
f 35/109/109 40/110/110 36/112/111
f 36/112/111 40/110/110 37/111/112
s 5
f 34/113/113 39/114/114 35/116/115
f 35/116/115 39/114/114 40/115/116
s 6
f 37/117/117 40/118/118 38/120/119
f 38/120/119 40/118/118 39/119/120
g default
v 6.149163 3.650708 -0.437442
v 6.149163 3.650708 -2.315976
v 6.004770 3.650708 -2.315976
v 6.004770 3.650708 -0.437442
v 6.004770 1.929210 -0.437442
v 6.149163 1.929210 -0.437442
v 6.149163 1.929210 -2.315976
v 6.004770 1.929210 -2.315976
vt 0.375000 0.310628
vt 0.625000 0.310628
vt 0.625000 0.433390
vt 0.375000 0.433390
vt 0.191610 0.250000
vt 0.191610 0.000000
vt 0.314372 0.000000
vt 0.314372 0.250000
vt 0.066084 0.953549
vt 0.066087 0.076682
vt 0.937281 0.076682
vt 0.937281 0.953549
vt 0.051570 0.972136
vt 0.051569 0.077829
vt 0.978190 0.077829
vt 0.978190 0.972136
vt 0.685628 0.250000
vt 0.685628 0.000000
vt 0.808390 0.000000
vt 0.808390 0.250000
vt 0.375000 0.816610
vt 0.625000 0.816610
vt 0.625000 0.939372
vt 0.375000 0.939372
vn 0.000000 1.000000 0.000000
vn 0.000000 1.000000 0.000000
vn 0.000000 1.000000 0.000000
vn 0.000000 1.000000 0.000000
vn 0.000000 0.000000 1.000000
vn 0.000000 0.000000 1.000000
vn 0.000000 0.000000 1.000000
vn 0.000000 0.000000 1.000000
vn 1.000000 0.000000 0.000000
vn 1.000000 0.000000 0.000000
vn 1.000000 0.000000 0.000000
vn 1.000000 0.000000 0.000000
vn -1.000000 0.000000 0.000000
vn -1.000000 0.000000 0.000000
vn -1.000000 0.000000 0.000000
vn -1.000000 0.000000 0.000000
vn 0.000000 0.000000 -1.000000
vn 0.000000 0.000000 -1.000000
vn 0.000000 0.000000 -1.000000
vn 0.000000 0.000000 -1.000000
vn 0.000000 -1.000000 0.000000
vn 0.000000 -1.000000 0.000000
vn 0.000000 -1.000000 0.000000
vn 0.000000 -1.000000 0.000000
s 1
g pCube206 polySurface32
usemtl lambert27SG
f 41/121/121 42/122/122 44/124/123
f 44/124/123 42/122/122 43/123/124
s 2
f 44/125/125 45/126/126 41/128/127
f 41/128/127 45/126/126 46/127/128
s 3
f 41/129/129 46/130/130 42/132/131
f 42/132/131 46/130/130 47/131/132
s 4
f 43/133/133 48/134/134 44/136/135
f 44/136/135 48/134/134 45/135/136
s 5
f 42/137/137 47/138/138 43/140/139
f 43/140/139 47/138/138 48/139/140
s 6
f 45/141/141 48/142/142 46/144/143
f 46/144/143 48/142/142 47/143/144
g default
v -4.169271 3.597190 9.940893
v -5.987206 3.597190 9.940893
v -5.987206 3.597190 10.085286
v -4.169271 3.597190 10.085286
v -4.169271 1.982728 10.085286
v -4.169271 1.982728 9.940893
v -5.987206 1.982728 9.940893
v -5.987206 1.982728 10.085286
vt 0.375000 0.310628
vt 0.625000 0.310628
vt 0.625000 0.433390
vt 0.375000 0.433390
vt 0.191610 0.250000
vt 0.191610 0.000000
vt 0.314372 0.000000
vt 0.314372 0.250000
vt 0.066084 0.953549
vt 0.066087 0.076682
vt 0.937281 0.076682
vt 0.937281 0.953549
vt 0.051570 0.972136
vt 0.051569 0.077829
vt 0.978190 0.077829
vt 0.978190 0.972136
vt 0.685628 0.250000
vt 0.685628 0.000000
vt 0.808390 0.000000
vt 0.808390 0.250000
vt 0.375000 0.816610
vt 0.625000 0.816610
vt 0.625000 0.939372
vt 0.375000 0.939372
vn 0.000000 1.000000 0.000000
vn 0.000000 1.000000 0.000000
vn 0.000000 1.000000 0.000000
vn 0.000000 1.000000 0.000000
vn 1.000000 0.000000 0.000000
vn 1.000000 0.000000 0.000000
vn 1.000000 0.000000 0.000000
vn 1.000000 0.000000 0.000000
vn 0.000000 0.000000 -1.000000
vn 0.000000 0.000000 -1.000000
vn 0.000000 0.000000 -1.000000
vn 0.000000 0.000000 -1.000000
vn 0.000000 0.000000 1.000000
vn 0.000000 0.000000 1.000000
vn 0.000000 0.000000 1.000000
vn 0.000000 0.000000 1.000000
vn -1.000000 0.000000 0.000000
vn -1.000000 0.000000 0.000000
vn -1.000000 0.000000 0.000000
vn -1.000000 0.000000 0.000000
vn 0.000000 -1.000000 0.000000
vn 0.000000 -1.000000 0.000000
vn 0.000000 -1.000000 0.000000
vn 0.000000 -1.000000 0.000000
s 1
g pCube206 polySurface26
usemtl lambert27SG
f 49/145/145 50/146/146 52/148/147
f 52/148/147 50/146/146 51/147/148
s 2
f 52/149/149 53/150/150 49/152/151
f 49/152/151 53/150/150 54/151/152
s 3
f 49/153/153 54/154/154 50/156/155
f 50/156/155 54/154/154 55/155/156
s 4
f 51/157/157 56/158/158 52/160/159
f 52/160/159 56/158/158 53/159/160
s 5
f 50/161/161 55/162/162 51/164/163
f 51/164/163 55/162/162 56/163/164
s 6
f 53/165/165 56/166/166 54/168/167
f 54/168/167 56/166/166 55/167/168
g default
v -4.492684 3.603597 -5.533599
v -5.096417 3.603597 -5.533599
v -5.096417 3.603597 -5.425756
v -4.492684 3.603597 -5.425756
v -4.492684 2.522020 -5.425756
v -4.492684 2.522020 -5.533599
v -5.096417 2.522020 -5.533599
v -5.096417 2.522020 -5.425756
vt 0.375000 0.310628
vt 0.625000 0.310628
vt 0.625000 0.433390
vt 0.375000 0.433390
vt 0.191610 0.250000
vt 0.191610 0.000000
vt 0.314372 0.000000
vt 0.314372 0.250000
vt 0.066084 0.953549
vt 0.066087 0.076682
vt 0.937281 0.076682
vt 0.937281 0.953549
vt 0.051570 0.972136
vt 0.051569 0.077829
vt 0.978190 0.077829
vt 0.978190 0.972136
vt 0.685628 0.250000
vt 0.685628 0.000000
vt 0.808390 0.000000
vt 0.808390 0.250000
vt 0.375000 0.816610
vt 0.625000 0.816610
vt 0.625000 0.939372
vt 0.375000 0.939372
vn 0.000000 1.000000 0.000000
vn 0.000000 1.000000 0.000000
vn 0.000000 1.000000 0.000000
vn 0.000000 1.000000 0.000000
vn 1.000000 0.000000 0.000000
vn 1.000000 0.000000 0.000000
vn 1.000000 0.000000 0.000000
vn 1.000000 0.000000 0.000000
vn 0.000000 0.000000 -1.000000
vn 0.000000 0.000000 -1.000000
vn 0.000000 0.000000 -1.000000
vn 0.000000 0.000000 -1.000000
vn 0.000000 0.000000 1.000000
vn 0.000000 0.000000 1.000000
vn 0.000000 0.000000 1.000000
vn 0.000000 0.000000 1.000000
vn -1.000000 0.000000 0.000000
vn -1.000000 0.000000 0.000000
vn -1.000000 0.000000 0.000000
vn -1.000000 0.000000 0.000000
vn 0.000000 -1.000000 0.000000
vn 0.000000 -1.000000 0.000000
vn 0.000000 -1.000000 0.000000
vn 0.000000 -1.000000 0.000000
s 1
g pCube206 polySurface29
usemtl lambert27SG
f 57/169/169 58/170/170 60/172/171
f 60/172/171 58/170/170 59/171/172
s 2
f 60/173/173 61/174/174 57/176/175
f 57/176/175 61/174/174 62/175/176
s 3
f 57/177/177 62/178/178 58/180/179
f 58/180/179 62/178/178 63/179/180
s 4
f 59/181/181 64/182/182 60/184/183
f 60/184/183 64/182/182 61/183/184
s 5
f 58/185/185 63/186/186 59/188/187
f 59/188/187 63/186/186 64/187/188
s 6
f 61/189/189 64/190/190 62/192/191
f 62/192/191 64/190/190 63/191/192
g default
v -7.095479 3.561172 3.632657
v -7.095479 3.561172 3.070233
v -7.170702 3.561172 3.070233
v -7.170702 3.561172 3.632657
v -7.170702 2.568417 3.632657
v -7.095479 2.568417 3.632657
v -7.095479 2.568417 3.070233
v -7.170702 2.568417 3.070233
vt 0.375000 0.310628
vt 0.625000 0.310628
vt 0.625000 0.433390
vt 0.375000 0.433390
vt 0.191610 0.250000
vt 0.191610 0.000000
vt 0.314372 0.000000
vt 0.314372 0.250000
vt 0.066084 0.953549
vt 0.066087 0.076682
vt 0.937281 0.076682
vt 0.937281 0.953549
vt 0.051570 0.972136
vt 0.051569 0.077829
vt 0.978190 0.077829
vt 0.978190 0.972136
vt 0.685628 0.250000
vt 0.685628 0.000000
vt 0.808390 0.000000
vt 0.808390 0.250000
vt 0.375000 0.816610
vt 0.625000 0.816610
vt 0.625000 0.939372
vt 0.375000 0.939372
vn 0.000000 1.000000 0.000000
vn 0.000000 1.000000 0.000000
vn 0.000000 1.000000 0.000000
vn 0.000000 1.000000 0.000000
vn 0.000000 0.000000 1.000000
vn 0.000000 0.000000 1.000000
vn 0.000000 0.000000 1.000000
vn 0.000000 0.000000 1.000000
vn 1.000000 0.000000 0.000000
vn 1.000000 0.000000 0.000000
vn 1.000000 0.000000 0.000000
vn 1.000000 0.000000 0.000000
vn -1.000000 0.000000 0.000000
vn -1.000000 0.000000 0.000000
vn -1.000000 0.000000 0.000000
vn -1.000000 0.000000 0.000000
vn 0.000000 0.000000 -1.000000
vn 0.000000 0.000000 -1.000000
vn 0.000000 0.000000 -1.000000
vn 0.000000 0.000000 -1.000000
vn 0.000000 -1.000000 0.000000
vn 0.000000 -1.000000 0.000000
vn 0.000000 -1.000000 0.000000
vn 0.000000 -1.000000 0.000000
s 1
g pCube206 polySurface27
usemtl lambert27SG
f 65/193/193 66/194/194 68/196/195
f 68/196/195 66/194/194 67/195/196
s 2
f 68/197/197 69/198/198 65/200/199
f 65/200/199 69/198/198 70/199/200
s 3
f 65/201/201 70/202/202 66/204/203
f 66/204/203 70/202/202 71/203/204
s 4
f 67/205/205 72/206/206 68/208/207
f 68/208/207 72/206/206 69/207/208
s 5
f 66/209/209 71/210/210 67/212/211
f 67/212/211 71/210/210 72/211/212
s 6
f 69/213/213 72/214/214 70/216/215
f 70/216/215 72/214/214 71/215/216
g default
v -7.061537 3.569268 8.353232
v -7.061537 3.569268 7.342598
v -7.205930 3.569268 7.342598
v -7.205930 3.569268 8.353232
v -7.205930 2.009747 8.353232
v -7.061537 2.009747 8.353232
v -7.061537 2.009747 7.342598
v -7.205930 2.009747 7.342598
vt 0.375000 0.310628
vt 0.625000 0.310628
vt 0.625000 0.433390
vt 0.375000 0.433390
vt 0.191610 0.250000
vt 0.191610 0.000000
vt 0.314372 0.000000
vt 0.314372 0.250000
vt 0.066084 0.953549
vt 0.066087 0.076682
vt 0.937281 0.076682
vt 0.937281 0.953549
vt 0.051570 0.972136
vt 0.051569 0.077829
vt 0.978190 0.077829
vt 0.978190 0.972136
vt 0.685628 0.250000
vt 0.685628 0.000000
vt 0.808390 0.000000
vt 0.808390 0.250000
vt 0.375000 0.816610
vt 0.625000 0.816610
vt 0.625000 0.939372
vt 0.375000 0.939372
vn 0.000000 1.000000 0.000000
vn 0.000000 1.000000 0.000000
vn 0.000000 1.000000 0.000000
vn 0.000000 1.000000 0.000000
vn 0.000000 0.000000 1.000000
vn 0.000000 0.000000 1.000000
vn 0.000000 0.000000 1.000000
vn 0.000000 0.000000 1.000000
vn 1.000000 0.000000 0.000000
vn 1.000000 0.000000 0.000000
vn 1.000000 0.000000 0.000000
vn 1.000000 0.000000 0.000000
vn -1.000000 0.000000 0.000000
vn -1.000000 0.000000 0.000000
vn -1.000000 0.000000 0.000000
vn -1.000000 0.000000 0.000000
vn 0.000000 0.000000 -1.000000
vn 0.000000 0.000000 -1.000000
vn 0.000000 0.000000 -1.000000
vn 0.000000 0.000000 -1.000000
vn 0.000000 -1.000000 0.000000
vn 0.000000 -1.000000 0.000000
vn 0.000000 -1.000000 0.000000
vn 0.000000 -1.000000 0.000000
s 1
g pCube206 polySurface28
usemtl lambert27SG
f 73/217/217 74/218/218 76/220/219
f 76/220/219 74/218/218 75/219/220
s 2
f 76/221/221 77/222/222 73/224/223
f 73/224/223 77/222/222 78/223/224
s 3
f 73/225/225 78/226/226 74/228/227
f 74/228/227 78/226/226 79/227/228
s 4
f 75/229/229 80/230/230 76/232/231
f 76/232/231 80/230/230 77/231/232
s 5
f 74/233/233 79/234/234 75/236/235
f 75/236/235 79/234/234 80/235/236
s 6
f 77/237/237 80/238/238 78/240/239
f 78/240/239 80/238/238 79/239/240
g default
v -7.050696 3.660811 -0.819571
v -7.050696 3.660811 -2.757032
v -7.195088 3.660811 -2.757032
v -7.195088 3.660811 -0.819571
v -7.195088 1.919108 -0.819571
v -7.050696 1.919108 -0.819571
v -7.050696 1.919108 -2.757032
v -7.195088 1.919108 -2.757032
vt 0.375000 0.310628
vt 0.625000 0.310628
vt 0.625000 0.433390
vt 0.375000 0.433390
vt 0.191610 0.250000
vt 0.191610 0.000000
vt 0.314372 0.000000
vt 0.314372 0.250000
vt 0.066084 0.953549
vt 0.066087 0.076682
vt 0.937281 0.076682
vt 0.937281 0.953549
vt 0.051570 0.972136
vt 0.051569 0.077829
vt 0.978190 0.077829
vt 0.978190 0.972136
vt 0.685628 0.250000
vt 0.685628 0.000000
vt 0.808390 0.000000
vt 0.808390 0.250000
vt 0.375000 0.816610
vt 0.625000 0.816610
vt 0.625000 0.939372
vt 0.375000 0.939372
vn 0.000000 1.000000 0.000000
vn 0.000000 1.000000 0.000000
vn 0.000000 1.000000 0.000000
vn 0.000000 1.000000 0.000000
vn 0.000000 0.000000 1.000000
vn 0.000000 0.000000 1.000000
vn 0.000000 0.000000 1.000000
vn 0.000000 0.000000 1.000000
vn 1.000000 0.000000 0.000000
vn 1.000000 0.000000 0.000000
vn 1.000000 0.000000 0.000000
vn 1.000000 0.000000 0.000000
vn -1.000000 0.000000 0.000000
vn -1.000000 0.000000 0.000000
vn -1.000000 0.000000 0.000000
vn -1.000000 0.000000 0.000000
vn 0.000000 0.000000 -1.000000
vn 0.000000 0.000000 -1.000000
vn 0.000000 0.000000 -1.000000
vn 0.000000 0.000000 -1.000000
vn 0.000000 -1.000000 0.000000
vn 0.000000 -1.000000 0.000000
vn 0.000000 -1.000000 0.000000
vn 0.000000 -1.000000 0.000000
s 1
g pCube206 polySurface30
usemtl lambert27SG
f 81/241/241 82/242/242 84/244/243
f 84/244/243 82/242/242 83/243/244
s 2
f 84/245/245 85/246/246 81/248/247
f 81/248/247 85/246/246 86/247/248
s 3
f 81/249/249 86/250/250 82/252/251
f 82/252/251 86/250/250 87/251/252
s 4
f 83/253/253 88/254/254 84/256/255
f 84/256/255 88/254/254 85/255/256
s 5
f 82/257/257 87/258/258 83/260/259
f 83/260/259 87/258/258 88/259/260
s 6
f 85/261/261 88/262/262 86/264/263
f 86/264/263 88/262/262 87/263/264
